<?xml version="1.0" standalone="no"?>
<!DOCTYPE svg PUBLIC "-//W3C//DTD SVG 20010904//EN"
 "http://www.w3.org/TR/2001/REC-SVG-20010904/DTD/svg10.dtd">
<svg version="1.0" xmlns="http://www.w3.org/2000/svg"
 width="1024.000000pt" height="1024.000000pt" viewBox="0 0 1024.000000 1024.000000"
 preserveAspectRatio="xMidYMid meet">
<metadata>
Created by potrace 1.14, written by Peter Selinger 2001-2017
</metadata>
<g transform="translate(0.000000,1024.000000) scale(0.100000,-0.100000)"
fill="#000000" stroke="none">
<path d="M6190 9509 c0 -5 5 -7 10 -4 6 3 10 8 10 11 0 2 -4 4 -10 4 -5 0 -10
-5 -10 -11z"/>
<path d="M5434 9502 c-16 -11 -25 -42 -11 -39 6 1 13 -8 15 -21 4 -26 22 -20
22 9 0 10 5 19 10 19 6 0 5 8 -2 20 -14 22 -18 23 -34 12z"/>
<path d="M6102 9482 c-1 -7 -6 -11 -11 -7 -6 3 -8 -4 -6 -15 4 -21 -5 -26 -20
-11 -6 6 -22 11 -37 13 -15 2 -30 7 -34 10 -10 11 -36 -20 -28 -33 5 -8 1 -8
-14 0 -17 9 -21 7 -27 -16 -6 -27 13 -53 39 -53 6 0 3 5 -6 11 -28 16 -21 25
18 26 32 1 33 0 17 -13 -12 -9 -13 -13 -5 -14 8 0 10 -5 6 -12 -5 -9 -2 -9 9
1 9 7 17 22 17 32 0 10 4 20 9 23 4 3 7 -6 5 -19 -1 -14 2 -27 7 -31 5 -3 9
-15 8 -27 l0 -22 -9 23 c-14 33 -21 27 -17 -13 5 -38 -7 -56 -17 -29 -5 13 -9
14 -21 4 -15 -12 -16 -11 -19 13 -1 6 -11 11 -24 9 -12 -2 -22 2 -22 7 0 17
-30 13 -36 -4 -9 -23 -34 -18 -34 8 l0 22 -20 -25 c-19 -25 -18 -71 3 -97 6
-9 6 -17 -1 -26 -7 -8 -7 -18 -2 -27 8 -12 10 -12 10 3 0 10 5 15 10 12 15 -9
12 -32 -5 -39 -9 -3 -32 3 -53 14 -41 22 -62 26 -44 8 7 -7 12 -18 12 -26 0
-8 11 -27 25 -44 40 -48 29 -52 -16 -6 -40 42 -42 42 -50 21 -5 -13 -11 -23
-13 -23 -3 0 -3 7 0 15 4 8 3 22 0 31 -6 14 -9 14 -26 -6 l-20 -23 0 26 c0 18
-5 27 -16 27 -8 0 -13 -4 -10 -9 10 -16 -18 -18 -33 -3 -10 10 -16 11 -19 3
-2 -6 -8 -11 -13 -11 -4 0 -6 6 -3 14 8 20 -48 15 -69 -6 -15 -15 -20 -15 -46
-2 -18 9 -28 20 -25 29 4 10 -8 15 -48 19 -190 19 -498 29 -498 15 0 -4 -14
-10 -30 -14 -17 -4 -44 -18 -60 -31 -32 -27 -66 -38 -75 -23 -10 15 -25 10
-19 -6 4 -9 0 -15 -10 -15 -9 0 -16 -4 -16 -10 0 -5 14 -10 31 -10 19 0 28 -4
24 -11 -4 -6 2 -19 13 -29 21 -19 20 -58 -1 -71 -5 -4 -6 -13 -2 -20 14 -22
16 -102 3 -154 -6 -27 -13 -68 -14 -90 -3 -42 -9 -75 -20 -112 -5 -17 -2 -23
9 -23 9 0 20 -7 25 -16 8 -14 10 -13 23 2 12 16 12 17 -3 12 -21 -8 -33 19
-17 38 15 18 33 18 26 0 -9 -22 21 -28 33 -6 6 11 10 23 9 27 -3 18 1 36 8 30
9 -10 33 13 33 32 0 29 143 187 160 176 5 -3 10 -1 10 4 0 6 11 11 25 11 13 0
32 9 42 20 21 22 103 39 103 21 0 -6 -7 -11 -15 -11 -8 0 -15 -5 -15 -12 0
-14 -86 -98 -101 -98 -5 0 -7 -11 -3 -24 4 -18 1 -25 -15 -29 -15 -3 -21 -13
-21 -31 0 -14 -5 -26 -11 -26 -5 0 -24 -29 -40 -65 -16 -36 -38 -71 -49 -77
-11 -7 -20 -17 -20 -23 0 -5 -6 -22 -14 -37 -8 -15 -17 -40 -21 -57 -5 -25 -4
-30 8 -25 8 3 18 17 21 31 4 13 19 35 33 47 19 16 26 32 25 55 -1 26 2 30 12
21 10 -8 25 2 64 42 28 29 64 72 79 95 16 24 53 60 83 80 30 21 58 43 62 49 4
6 21 17 38 24 16 7 30 17 30 22 0 6 6 8 14 5 8 -3 16 -3 18 1 2 4 26 15 53 25
l50 17 -31 -27 c-42 -38 -67 -80 -60 -99 5 -13 9 -14 20 -5 10 9 15 8 19 -2 3
-8 -12 -37 -34 -66 -22 -29 -36 -57 -33 -63 5 -7 2 -9 -9 -5 -12 4 -27 -10
-57 -56 -22 -34 -40 -69 -40 -78 0 -9 -8 -23 -17 -30 -15 -12 -16 -12 -10 4 9
24 2 21 -30 -12 -54 -57 -57 -62 -42 -73 10 -7 8 -8 -8 -3 -24 7 -27 -1 -24
-51 2 -14 -5 -23 -18 -27 -13 -3 -21 -13 -21 -27 0 -13 -26 -47 -69 -90 -38
-37 -72 -76 -75 -86 -4 -11 -20 -29 -37 -42 -23 -19 -29 -20 -29 -8 0 30 -18
16 -39 -29 -12 -25 -27 -45 -34 -45 -7 0 -27 -13 -45 -30 -18 -16 -42 -35 -53
-40 -10 -6 -19 -17 -19 -25 0 -8 -4 -15 -9 -15 -5 0 -14 -14 -21 -30 -16 -38
-62 -65 -88 -51 -10 5 -26 9 -36 8 -11 -1 -21 4 -24 12 -3 10 1 12 16 9 27 -7
18 19 -9 27 -42 14 -109 -30 -109 -71 0 -27 -28 -44 -115 -69 -33 -10 -73 -24
-88 -32 -15 -8 -77 -29 -137 -47 -60 -18 -122 -42 -137 -52 -37 -25 -102 -54
-119 -54 -14 0 -44 -14 -74 -35 -8 -6 -41 -21 -73 -33 -31 -12 -83 -31 -115
-43 -51 -19 -89 -36 -264 -118 -27 -13 -48 -26 -48 -30 0 -5 -14 -8 -31 -9
-17 0 -41 -9 -53 -20 -11 -11 -86 -47 -166 -81 -80 -34 -165 -75 -189 -91 -24
-17 -49 -30 -54 -30 -6 0 -35 -12 -66 -26 -84 -39 -116 -53 -161 -67 -9 -3
-43 -31 -77 -64 -22 -20 -40 -29 -52 -26 -13 3 -30 -5 -48 -24 -16 -16 -43
-38 -61 -48 -26 -16 -32 -26 -33 -55 -2 -61 1 -73 40 -155 43 -88 76 -162 84
-185 3 -8 3 20 0 62 -5 70 -4 80 20 121 29 49 99 117 121 117 24 0 106 -39
106 -50 0 -13 -17 -13 -25 0 -5 8 -11 7 -21 -1 -20 -16 -18 -27 7 -34 11 -4
25 -20 31 -36 5 -16 17 -29 25 -29 8 0 12 -4 9 -9 -4 -5 2 -7 13 -4 10 3 22
-1 26 -8 5 -8 4 -10 -3 -5 -7 4 -12 2 -12 -3 0 -6 5 -11 11 -11 25 0 0 -25
-27 -27 -37 -3 -121 -22 -156 -35 -25 -9 -61 -50 -64 -73 0 -5 -2 -16 -2 -22
-3 -22 -34 -14 -40 9 -5 19 -7 17 -16 -17 -8 -27 -21 -44 -43 -56 l-31 -18
-11 27 c-6 15 -13 54 -15 87 -3 33 -6 61 -7 63 -1 1 -2 5 -4 10 -1 4 -7 21
-14 37 -6 17 -22 55 -33 85 -12 30 -27 62 -34 70 -6 8 -15 26 -19 40 -27 86
-262 338 -395 422 -108 69 -257 136 -352 158 -183 43 -303 11 -434 -118 -153
-151 -209 -353 -182 -652 8 -84 31 -211 42 -229 23 -37 38 48 16 90 -16 29 -1
138 21 160 10 10 31 21 46 25 34 8 101 50 125 79 10 11 18 15 18 9 0 -6 13
-17 29 -24 35 -14 71 0 71 29 0 40 86 36 96 -5 7 -28 -2 -45 -21 -37 -9 3 -15
-1 -15 -11 0 -9 -5 -16 -11 -16 -5 0 -9 -8 -8 -17 3 -30 0 -33 -26 -23 -17 6
-25 6 -25 -1 0 -6 -5 -7 -10 -4 -6 3 -10 2 -10 -3 0 -15 28 -22 33 -9 5 13 11
0 21 -45 4 -15 16 -36 27 -47 26 -24 49 -67 49 -92 0 -24 16 -32 45 -25 18 5
23 12 20 29 -4 20 -3 21 9 5 7 -10 19 -18 25 -18 7 0 21 -8 31 -18 20 -19 20
-53 0 -78 -9 -10 -6 -23 11 -54 12 -22 26 -40 30 -40 4 0 10 -21 14 -47 8 -56
31 -89 74 -104 22 -8 31 -17 31 -33 0 -12 5 -27 11 -33 9 -9 7 -30 -6 -81 -19
-79 -38 -95 -102 -85 -43 7 -80 27 -173 93 -36 26 -75 47 -88 48 -13 0 -38 18
-60 43 -20 23 -46 49 -56 58 -11 9 -29 25 -41 36 -21 20 -57 26 -71 13 -3 -4
-17 0 -30 9 -13 8 -24 13 -24 10 0 -15 44 -77 49 -70 8 10 57 11 67 1 4 -5 1
-8 -7 -9 -8 -1 -23 -2 -33 -3 -29 -2 -29 -18 -1 -50 14 -16 25 -34 25 -41 0
-6 10 -21 23 -32 12 -11 39 -41 60 -66 21 -26 82 -76 135 -113 75 -53 122 -76
207 -106 61 -20 125 -37 143 -38 18 0 42 -5 53 -10 10 -6 70 -11 132 -12 103
0 119 2 197 32 96 37 109 46 200 134 64 61 82 89 143 211 35 71 42 92 71 210
l22 90 64 0 c36 1 91 5 123 9 50 8 57 7 57 -8 0 -9 7 -19 15 -22 8 -4 15 -15
15 -26 0 -11 5 -28 11 -39 6 -11 12 -29 14 -40 2 -12 7 -30 11 -41 4 -14 2
-18 -5 -14 -6 4 -11 2 -11 -3 0 -6 5 -11 10 -11 6 0 10 -7 10 -15 0 -8 6 -15
13 -15 8 0 8 -3 2 -8 -16 -11 -12 -32 9 -47 10 -8 15 -18 11 -24 -3 -6 3 -21
15 -33 11 -12 18 -28 16 -35 -3 -7 -1 -13 5 -13 6 0 8 -4 4 -9 -3 -5 -1 -12 5
-16 6 -4 7 -11 4 -17 -4 -7 -2 -8 4 -4 8 4 16 -3 22 -20 8 -19 8 -29 0 -34
-15 -9 29 -109 69 -157 17 -20 28 -40 25 -45 -10 -16 -12 -133 -2 -145 5 -6
10 -30 11 -52 1 -23 5 -41 9 -41 4 0 10 -16 14 -36 4 -19 13 -38 20 -41 8 -3
14 -11 14 -18 0 -8 6 -20 13 -27 13 -13 17 -84 6 -103 -12 -21 -8 -67 7 -90 9
-13 13 -29 10 -34 -4 -5 -2 -12 4 -16 5 -3 10 -16 10 -29 0 -13 9 -31 20 -41
12 -10 18 -25 16 -32 -3 -7 -1 -15 4 -18 6 -4 10 -13 10 -22 0 -9 11 -26 25
-39 23 -21 24 -24 7 -33 -18 -10 -15 -14 40 -52 5 -3 10 -21 11 -40 1 -19 6
-39 10 -46 4 -6 5 -17 2 -25 -3 -7 6 -35 20 -62 14 -27 25 -57 26 -65 1 -23
63 -106 80 -107 8 -1 20 -2 27 -3 6 0 12 -8 12 -17 0 -8 4 -13 9 -9 5 3 12 1
15 -3 3 -5 29 -8 58 -7 29 1 62 -4 73 -10 11 -7 37 -16 57 -19 20 -4 38 -12
40 -18 3 -8 13 -8 38 0 55 17 130 30 130 22 0 -11 132 35 144 51 6 8 25 21 41
29 16 9 39 30 51 48 16 23 25 29 30 20 6 -9 10 -5 14 12 3 14 12 25 20 25 8 0
20 11 27 25 11 22 12 23 13 5 1 -17 3 -16 16 8 16 29 30 37 20 12 -5 -13 -1
-12 19 2 14 10 30 36 36 57 8 29 13 36 20 25 6 -10 9 -7 9 13 0 19 4 26 14 22
9 -3 16 5 20 23 7 27 39 102 74 172 9 18 31 48 49 66 20 20 29 35 22 42 -6 6
-1 17 12 32 12 12 19 25 16 28 -3 3 10 19 29 35 26 23 32 33 22 39 -10 7 -9 9
4 9 12 0 15 6 10 22 -3 14 -2 19 6 14 7 -4 12 -1 12 10 0 13 3 14 15 4 8 -7
12 -16 9 -21 -3 -5 0 -8 7 -7 14 3 30 -47 22 -68 -3 -8 0 -14 6 -14 13 0 41
-64 41 -96 0 -13 4 -24 10 -24 5 0 12 -16 16 -35 3 -19 10 -35 15 -35 5 0 9
-9 9 -21 0 -11 4 -28 9 -37 8 -16 21 -116 26 -212 2 -33 -2 -48 -14 -57 -14
-9 -17 -30 -19 -108 -2 -106 -4 -115 -33 -115 -10 0 -20 -6 -21 -12 -2 -22 -4
-32 -16 -73 -6 -22 -13 -74 -17 -115 -10 -130 -15 -149 -39 -163 -13 -6 -49
-41 -80 -76 -54 -61 -57 -67 -54 -110 2 -33 8 -47 19 -49 12 -2 18 7 23 31 5
24 13 37 29 41 44 12 57 7 57 -20 0 -21 -4 -24 -20 -19 -17 5 -21 0 -26 -35
-4 -22 -11 -43 -15 -46 -5 -3 -9 -16 -9 -29 0 -13 -15 -52 -34 -87 -46 -85
-70 -134 -96 -191 -12 -26 -29 -54 -37 -62 -14 -15 -51 -125 -58 -176 -6 -35
-28 -76 -41 -72 -10 3 -107 -184 -118 -228 -5 -22 0 -31 27 -51 17 -13 44 -30
60 -37 l27 -14 -20 -19 c-15 -14 -32 -18 -62 -16 l-41 3 -18 -55 c-10 -30 -21
-89 -25 -131 -8 -93 8 -133 73 -187 41 -34 72 -84 88 -142 11 -39 25 -50 61
-50 30 0 34 -3 34 -26 0 -15 7 -32 15 -38 9 -6 20 -40 26 -81 12 -75 32 -109
59 -100 11 3 20 -1 24 -10 3 -8 13 -15 23 -15 15 0 18 -8 15 -52 -4 -58 19
-106 37 -79 12 19 34 -17 55 -91 9 -32 21 -58 26 -58 6 0 10 -7 10 -16 0 -10
6 -14 15 -10 20 7 59 -30 87 -85 13 -25 35 -57 49 -71 15 -14 36 -42 48 -62
13 -20 27 -36 32 -36 5 0 9 -6 9 -13 0 -8 10 -22 21 -33 12 -10 32 -35 44 -54
13 -19 37 -50 54 -69 17 -19 31 -42 31 -51 0 -9 38 -59 85 -110 47 -51 85
-101 85 -111 0 -10 -17 -28 -37 -40 -21 -12 -68 -42 -105 -66 -37 -24 -71 -43
-76 -43 -5 0 -38 -9 -72 -20 -91 -29 -126 -27 -138 8 -9 27 -12 28 -83 30 -41
1 -96 6 -124 11 -36 7 -74 5 -135 -5 -47 -8 -123 -21 -170 -29 -82 -14 -220
-53 -257 -73 -10 -6 -40 -12 -67 -15 -27 -3 -53 -11 -57 -19 -7 -10 -9 -10 -9
0 0 9 -5 10 -17 4 -10 -5 -45 -10 -77 -11 -33 -1 -63 -4 -67 -7 -4 -2 -10 -1
-13 4 -4 7 -117 7 -193 -1 -19 -2 -33 1 -33 7 0 7 -3 8 -8 1 -4 -6 -14 -10
-22 -10 -8 1 -19 -1 -24 -3 -16 -9 -90 -8 -108 0 -14 7 -18 4 -18 -9 0 -11 -3
-14 -8 -7 -7 11 -51 24 -102 30 -13 1 -26 7 -28 13 -2 5 -15 6 -30 2 -42 -11
-129 -6 -147 9 -13 11 -14 10 -9 -4 5 -12 2 -15 -9 -10 -9 3 -18 12 -21 21 -5
11 -14 13 -38 7 -43 -10 -98 -12 -98 -4 0 6 -64 5 -210 -3 -25 -1 -47 -5 -50
-9 -3 -4 -22 -3 -42 1 -20 5 -40 6 -43 3 -10 -10 -49 -8 -57 3 -5 6 -8 5 -8
-3 0 -7 -5 -10 -10 -7 -6 4 -17 1 -25 -5 -10 -9 -15 -9 -15 -1 0 7 -8 8 -25 1
-18 -7 -25 -6 -25 3 0 8 -3 8 -8 2 -4 -6 -20 -10 -37 -10 -16 0 -36 -4 -43 -9
-8 -6 -24 -12 -35 -13 -12 -2 -26 -8 -31 -13 -13 -13 -29 -13 -21 -1 3 5 1 12
-5 16 -6 3 -10 -4 -10 -17 0 -20 9 -26 60 -41 33 -10 81 -17 108 -16 27 1 53
-1 59 -4 13 -8 82 -19 201 -32 24 -3 49 -8 55 -12 12 -7 110 -16 307 -28 52
-3 127 -7 165 -10 39 -2 70 -4 70 -5 0 -1 34 -3 75 -5 41 -2 86 -7 100 -11 14
-3 38 -8 55 -10 16 -2 31 -8 33 -14 2 -6 7 -8 11 -6 3 2 29 0 56 -5 48 -10
187 -34 250 -43 17 -3 61 -12 98 -20 37 -9 71 -15 75 -14 4 1 27 -2 52 -5 25
-4 66 -9 91 -12 25 -2 67 -9 92 -15 26 -5 104 -15 174 -20 212 -17 256 -21
313 -31 30 -6 66 -12 80 -13 51 -7 130 -28 136 -37 3 -5 10 -7 15 -4 5 4 9 2
9 -3 0 -5 6 -9 13 -10 6 -1 48 -8 92 -16 44 -8 112 -15 150 -16 78 0 196 -15
325 -40 72 -14 787 -13 796 1 3 6 12 8 20 5 8 -3 14 -1 14 3 0 5 23 15 50 22
28 7 50 16 50 21 0 4 11 8 25 8 14 0 42 8 63 17 20 9 42 17 47 18 6 1 26 5 45
10 19 4 45 9 56 10 12 2 37 10 55 18 48 22 85 32 174 48 27 5 61 13 75 18 14
5 52 17 85 27 33 10 71 25 85 34 22 15 58 24 145 37 11 1 81 5 155 9 74 3 151
10 170 15 19 5 81 9 137 9 106 0 203 15 203 31 0 5 -6 9 -14 9 -7 0 -31 18
-53 39 -40 40 -56 47 -203 77 -46 10 -92 26 -102 36 -20 20 -16 41 33 153 9
20 21 54 74 205 51 147 77 210 85 210 5 0 13 24 20 53 6 28 23 88 37 132 14
44 27 91 27 105 1 14 7 34 13 45 16 29 15 263 -2 295 -19 39 -35 92 -29 101 2
5 -5 18 -16 29 -11 11 -18 25 -15 30 6 9 -22 80 -35 90 -4 3 -12 15 -19 28 -6
12 -17 22 -24 22 -11 0 -75 101 -68 108 1 1 -1 16 -4 33 -5 24 -11 30 -26 26
-10 -3 -17 -1 -14 4 8 12 -17 49 -33 49 -7 0 -16 8 -19 17 -10 26 -55 73 -69
73 -7 0 -18 9 -24 20 -6 11 -17 20 -25 20 -8 0 -15 5 -15 10 0 6 -7 10 -14 10
-17 0 -66 43 -66 57 0 6 -8 14 -17 17 -52 20 -125 74 -117 87 2 4 -12 21 -32
37 -22 18 -33 35 -29 42 4 7 1 11 -6 9 -26 -3 -40 1 -35 10 3 5 -1 12 -10 15
-11 4 -15 14 -12 31 3 14 2 25 -2 25 -5 0 -13 14 -19 30 -5 17 -17 33 -25 36
-8 3 -30 29 -49 57 -25 39 -32 58 -26 74 7 18 -10 87 -28 117 -4 5 -8 21 -9
35 -2 14 -6 42 -9 61 -3 19 -7 96 -9 170 -4 160 6 202 65 280 108 143 374 769
367 866 -1 17 8 46 19 65 12 19 29 54 39 79 9 25 29 60 43 79 41 53 59 85 60
104 1 9 5 17 9 17 10 0 36 62 50 120 18 71 27 205 19 267 -2 18 -1 37 3 44 4
6 4 26 0 44 -5 20 -2 47 6 71 15 43 18 74 7 74 -36 0 -36 158 -1 197 12 13 17
27 12 35 -4 7 -4 10 1 6 4 -4 14 -3 22 3 15 13 18 49 3 49 -19 0 -10 18 13 25
13 4 17 8 10 12 -7 2 -13 12 -13 22 0 9 -5 22 -12 29 -9 9 -9 12 3 12 11 0 14
15 15 65 0 36 -4 65 -8 65 -5 0 -7 9 -3 19 3 11 8 30 10 42 3 12 16 35 31 50
14 15 21 28 16 30 -12 5 -19 120 -8 137 4 7 3 12 -2 12 -6 0 -9 33 -7 76 1 42
-2 92 -8 111 -8 26 -7 44 6 81 9 26 18 74 20 107 3 33 7 67 11 75 3 8 7 45 10
81 2 36 9 76 15 88 7 11 9 21 6 21 -3 0 0 10 6 23 15 26 13 78 -2 88 -7 4 -13
56 -14 134 -2 70 -9 140 -15 156 -7 16 -10 41 -7 56 3 18 -3 38 -19 62 -13 20
-20 37 -14 39 11 4 3 51 -11 66 -4 5 -5 14 -3 21 3 7 1 16 -5 20 -6 3 -11 31
-11 61 0 30 -7 70 -14 89 -8 19 -13 35 -10 35 2 0 -2 10 -10 23 -7 12 -21 45
-30 74 -10 28 -24 57 -32 63 -7 7 -14 25 -14 40 0 15 -6 33 -14 39 -18 15 -28
69 -17 89 9 16 -6 43 -56 98 -13 14 -23 29 -23 34 0 6 -4 10 -10 10 -11 0 -44
60 -33 60 5 0 2 4 -5 9 -7 4 -14 14 -16 22 -5 35 -41 98 -58 102 -17 5 -24 36
-20 89 1 9 -5 22 -13 28 -8 7 -15 22 -15 34 0 12 -12 38 -26 57 -36 49 -74
127 -74 153 0 14 -17 38 -46 64 -32 29 -44 46 -40 58 3 9 1 23 -5 30 -6 8 -9
20 -6 28 3 8 -1 17 -10 20 -9 4 -13 13 -9 22 4 10 -12 34 -49 70 -30 30 -59
54 -64 54 -6 0 -22 16 -37 35 -14 19 -31 35 -38 35 -6 0 -27 17 -46 37 -19 19
-49 42 -67 49 -24 10 -30 18 -26 33 4 17 0 20 -23 18 -20 -2 -28 -8 -29 -25
-1 -12 -5 -25 -9 -29 -10 -10 -25 17 -19 33 2 7 -5 15 -16 19 -31 10 -25 25 9
25 17 0 30 5 30 13 -1 36 -50 55 -69 25 -9 -15 -14 -16 -25 -6 -8 7 -12 16
-10 19 2 3 -2 22 -8 43 -13 42 -39 46 -48 6 -5 -22 -7 -23 -13 -7 -5 13 -13
17 -28 12 -15 -5 -19 -4 -15 4 4 6 14 11 22 11 8 0 14 9 14 21 0 18 -2 20 -16
8 -13 -10 -17 -10 -24 0 -4 8 -13 10 -19 7 -6 -4 -8 -12 -5 -18 4 -7 -14 -9
-56 -5 -34 3 -57 1 -51 -3 7 -4 18 -19 26 -33 13 -25 12 -26 -8 -23 -16 2 -21
9 -19 25 2 15 -1 19 -12 15 -11 -4 -16 3 -19 28 -2 18 -5 27 -5 20z m238 -136
c0 -3 -4 -8 -10 -11 -5 -3 -10 -1 -10 4 0 6 5 11 10 11 6 0 10 -2 10 -4z
m-200 -24 c0 -4 -11 -7 -25 -7 -22 0 -23 1 -9 12 16 12 34 9 34 -5z m275 -31
c-3 -6 -11 -11 -17 -11 -6 0 -6 6 2 15 14 17 26 13 15 -4z m-558 -21 c1 -11
-2 -20 -8 -20 -10 0 -12 23 -2 33 9 9 9 10 10 -13z m103 -4 c0 -13 -8 -30 -17
-37 -16 -13 -17 -12 -5 3 8 10 11 26 7 38 -4 11 -2 20 4 20 6 0 11 -11 11 -24z
m32 2 c-7 -7 -12 -8 -12 -2 0 14 12 26 19 19 2 -3 -1 -11 -7 -17z m58 -28 c0
-5 -5 -10 -11 -10 -5 0 -7 5 -4 10 3 6 8 10 11 10 2 0 4 -4 4 -10z m-170 -21
c0 -6 -4 -7 -10 -4 -5 3 -10 11 -10 16 0 6 5 7 10 4 6 -3 10 -11 10 -16z m194
-48 c-16 -14 -17 -14 -6 0 7 9 10 25 6 35 -5 18 -5 18 6 0 10 -15 9 -21 -6
-35z m-537 -7 c-3 -3 -12 -4 -19 -1 -8 3 -5 6 6 6 11 1 17 -2 13 -5z m343 -24
c0 -5 -5 -10 -11 -10 -5 0 -7 5 -4 10 3 6 8 10 11 10 2 0 4 -4 4 -10z m15
-199 c6 -4 22 -7 38 -6 15 0 27 -2 27 -5 0 -4 16 -14 36 -23 38 -19 57 -53 68
-124 4 -27 2 -43 -4 -43 -5 0 -10 9 -10 21 0 11 -5 17 -10 14 -7 -4 -7 -13 0
-25 11 -20 7 -53 -12 -103 -9 -23 -13 -25 -27 -15 -13 10 -12 8 2 -8 21 -25
22 -38 2 -30 -8 3 -15 1 -15 -4 0 -6 5 -10 11 -10 5 0 7 -5 4 -10 -4 -6 -11
-7 -17 -4 -20 12 2 -50 23 -66 19 -15 19 -17 -19 -59 -23 -26 -44 -41 -51 -37
-6 4 -11 3 -11 -3 0 -5 5 -13 10 -16 6 -4 8 -15 5 -26 -4 -10 -2 -19 3 -19 6
0 8 -9 5 -19 -3 -14 -13 -18 -33 -17 -18 1 -26 -2 -23 -10 2 -6 -8 -14 -22
-18 -14 -4 -23 -11 -20 -16 4 -6 11 -8 16 -5 5 4 9 1 9 -4 0 -6 7 -11 16 -11
13 0 14 -3 4 -14 -6 -8 -19 -12 -28 -9 -15 6 -16 5 -2 -12 14 -17 13 -18 -2
-12 -13 5 -18 1 -18 -13 0 -11 5 -20 10 -20 6 0 10 -7 10 -15 0 -11 -6 -12
-22 -6 -13 4 -29 6 -35 4 -7 -3 -13 1 -13 7 0 10 -4 10 -15 0 -9 -7 -15 -8
-15 -2 0 5 -8 9 -17 8 -10 0 -17 4 -16 11 2 7 -8 10 -27 8 -22 -3 -28 0 -23
11 3 7 1 14 -5 14 -6 0 -12 -5 -14 -11 -5 -14 -38 0 -38 17 0 8 6 11 15 8 8
-4 15 -2 15 4 0 6 9 8 21 5 12 -4 25 0 30 8 8 12 11 12 19 -1 5 -8 10 -10 10
-5 0 19 -15 31 -38 29 -12 -1 -26 4 -30 10 -4 7 -21 18 -39 25 -18 7 -35 22
-38 32 -4 11 -11 17 -16 14 -13 -9 -11 49 3 63 7 7 8 16 2 24 -6 7 -9 29 -9
48 4 92 5 96 15 80 8 -12 10 -10 10 11 0 14 3 29 8 35 4 5 3 6 -2 2 -16 -13
-31 -9 -18 4 15 15 16 32 1 22 -8 -4 -9 0 -4 15 4 12 2 21 -4 21 -6 0 -11 5
-11 11 0 6 7 9 15 6 8 -4 17 -2 20 3 11 18 -21 16 -42 -3 l-22 -20 8 31 c5 17
13 36 16 43 5 8 0 9 -16 5 -13 -3 -18 -3 -11 0 6 3 12 12 12 20 0 9 5 12 10 9
6 -3 10 1 10 10 0 27 113 132 141 131 13 -1 27 -5 31 -10 9 -14 39 20 32 37
-3 9 2 17 13 20 21 6 94 -2 108 -12z m-385 -95 c0 -8 -7 -16 -15 -20 -8 -3
-15 -12 -15 -19 0 -12 -19 -25 -65 -46 -16 -7 26 53 54 76 30 26 41 29 41 9z
m-678 -105 c1 -13 -2 -26 -8 -28 -5 -2 -10 12 -11 33 -1 39 13 35 19 -5z m563
-1 c-3 -5 -11 -10 -16 -10 -6 0 -7 5 -4 10 3 6 11 10 16 10 6 0 7 -4 4 -10z
m679 -92 c-3 -4 -11 -8 -17 -8 -7 0 -6 4 3 10 11 7 11 10 2 10 -7 0 -10 5 -6
11 4 8 9 7 15 -2 4 -7 5 -17 3 -21z m-744 8 c0 -3 -4 -8 -10 -11 -5 -3 -10 -1
-10 4 0 6 5 11 10 11 6 0 10 -2 10 -4z m740 -57 c0 -5 -4 -9 -10 -9 -5 0 -10
7 -10 16 0 8 5 12 10 9 6 -3 10 -10 10 -16z m-873 -105 c-3 -3 -12 -4 -19 -1
-8 3 -5 6 6 6 11 1 17 -2 13 -5z m420 -286 c-3 -8 -6 -5 -6 6 -1 11 2 17 5 13
3 -3 4 -12 1 -19z m103 -68 c0 -5 -2 -10 -4 -10 -3 0 -8 5 -11 10 -3 6 -1 10
4 10 6 0 11 -4 11 -10z m-1243 -341 c-14 -8 -22 -8 -30 0 -8 8 -3 11 19 11 25
-1 27 -2 11 -11z m-42 -159 c52 -53 53 -80 3 -193 -34 -76 -40 -97 -36 -139 6
-56 32 -98 70 -110 22 -8 35 -3 74 24 59 42 68 64 44 114 -27 60 -39 103 -30
109 14 8 32 -23 37 -65 7 -47 13 -49 44 -15 25 26 54 34 47 13 -59 -166 -61
-176 -44 -193 9 -9 16 -12 16 -6 0 6 9 11 20 11 23 0 24 -1 8 -35 -9 -21 -17
-25 -35 -20 -13 3 -23 1 -23 -5 0 -6 -4 -9 -8 -6 -5 3 -8 -7 -7 -21 0 -15 6
-28 13 -31 7 -2 10 -8 7 -12 -3 -5 0 -19 7 -30 11 -17 11 -22 0 -29 -9 -5 -11
-17 -6 -36 6 -24 4 -27 -11 -22 -12 5 -16 3 -12 -7 6 -14 -9 -16 -30 -3 -6 4
-15 2 -19 -4 -4 -7 -3 -9 3 -6 6 4 13 -2 16 -13 3 -11 1 -20 -4 -20 -5 0 -9
-7 -9 -15 0 -10 -10 -15 -30 -15 -35 0 -39 -17 -11 -47 20 -21 20 -21 -1 -26
-24 -7 -38 -1 -38 14 0 6 5 7 10 4 6 -3 10 -2 10 4 0 16 -14 20 -25 7 -12 -14
-12 -36 -1 -55 7 -11 5 -13 -8 -8 -10 4 -15 3 -11 -3 3 -6 12 -10 20 -10 15 0
28 -27 19 -41 -3 -5 -14 -5 -27 2 -20 9 -20 9 -5 -4 20 -16 20 -58 -1 -73 -9
-7 -18 -35 -21 -65 -4 -44 -9 -56 -27 -64 -25 -11 -32 -28 -9 -19 21 8 41 -33
25 -52 -8 -10 -8 -14 0 -14 6 0 11 -4 11 -10 0 -5 -9 -10 -20 -10 -13 0 -20 7
-20 20 0 11 -4 20 -10 20 -5 0 -7 -7 -4 -15 4 -9 0 -15 -7 -15 -11 0 -11 -2
-1 -8 20 -13 -29 -98 -54 -94 -15 2 -16 1 -4 -7 8 -5 18 -7 22 -5 4 3 8 -7 8
-21 0 -21 -4 -26 -22 -23 -11 2 -23 -3 -26 -10 -2 -7 2 -13 9 -11 28 3 39 -2
40 -18 0 -14 2 -13 9 5 5 12 14 22 20 22 7 0 7 -7 -1 -21 -8 -16 -8 -24 2 -33
9 -8 11 -7 6 7 -4 9 -2 17 3 17 6 0 10 -4 10 -8 0 -5 10 -14 23 -20 17 -8 18
-11 5 -11 -14 -1 -16 -6 -9 -23 5 -13 14 -22 19 -21 5 1 22 -9 36 -22 15 -14
38 -28 51 -31 14 -3 25 -10 25 -15 0 -5 7 -9 16 -9 8 0 12 -5 9 -10 -4 -6 -3
-10 2 -9 26 5 53 -3 53 -15 0 -19 26 -40 34 -27 4 6 13 8 21 6 51 -16 50 -16
35 -26 -13 -9 -12 -10 1 -6 9 3 38 -5 63 -19 25 -13 46 -22 46 -18 0 3 16 -4
36 -17 28 -17 38 -19 44 -9 6 10 13 8 31 -9 12 -11 19 -21 13 -21 -5 0 0 -6
10 -12 15 -8 21 -8 24 1 3 8 10 5 21 -8 10 -12 21 -18 25 -14 17 17 44 12 50
-10 3 -14 14 -23 27 -24 20 -2 21 -1 3 12 -11 8 -14 15 -7 15 7 0 10 7 6 16
-4 12 -2 15 8 12 7 -2 16 -15 19 -29 6 -23 6 -24 12 -2 3 12 1 26 -4 31 -11
11 16 42 35 41 9 0 8 -2 0 -6 -14 -5 -18 -53 -5 -53 5 0 17 7 28 15 19 15 19
15 -1 8 -18 -6 -18 -5 -6 10 7 9 11 24 7 32 -3 9 -2 13 4 10 6 -3 10 -1 10 4
0 6 8 11 18 10 10 0 12 -3 5 -6 -7 -2 -13 -9 -13 -14 0 -6 4 -8 9 -4 5 3 13 0
17 -6 4 -8 3 -9 -4 -5 -11 7 -17 -13 -13 -38 1 -4 -6 -20 -15 -35 -9 -14 -13
-23 -9 -19 5 4 14 3 21 -3 9 -7 14 -2 19 21 4 16 11 28 15 25 5 -3 7 -13 4
-23 -5 -15 -4 -15 5 -1 7 11 7 35 1 73 -5 31 -6 64 -3 74 6 15 5 16 -12 2 -17
-14 -17 -13 -10 9 5 16 4 21 -4 17 -6 -4 -11 -2 -11 5 0 6 -8 19 -17 28 -27
25 -25 54 7 91 17 19 30 43 30 53 0 9 3 17 8 17 4 0 16 13 26 28 l20 27 -22
-19 c-12 -11 -22 -15 -22 -10 0 13 30 56 55 76 17 15 18 19 5 28 -13 8 -12 10
3 10 10 0 21 8 24 18 4 9 10 19 13 22 15 10 22 50 9 50 -7 0 -3 10 9 23 12 13
22 28 22 34 0 6 6 14 13 17 6 4 2 4 -11 2 -22 -4 -22 -4 -5 27 10 18 23 35 28
39 7 5 7 8 0 8 -6 0 -5 3 1 8 6 4 15 18 19 32 7 22 6 23 -9 11 -9 -8 -16 -9
-16 -3 0 6 12 20 27 32 14 11 27 29 28 39 0 9 11 28 23 41 12 13 24 32 28 42
3 10 10 18 15 18 5 0 9 5 9 10 0 6 -7 10 -17 10 -14 0 -14 2 2 20 10 11 21 17
26 15 4 -3 11 0 15 6 4 8 3 9 -4 5 -14 -9 -14 -9 -3 31 8 27 7 31 -7 27 -14
-5 -13 -2 2 10 22 18 56 66 56 80 0 5 -9 1 -20 -9 -11 -10 -20 -13 -20 -8 0
16 29 37 69 50 20 7 25 11 11 8 -23 -4 -23 -3 -7 9 23 18 21 25 -5 19 -22 -6
-22 -6 2 15 14 12 19 21 13 22 -7 0 -13 4 -13 10 0 5 5 9 12 7 7 -1 13 8 14
20 1 13 12 32 25 42 20 17 21 20 7 21 -10 0 -18 7 -18 15 0 13 12 19 32 16 4
0 5 6 1 15 -5 13 -2 15 15 9 14 -4 22 -2 22 5 0 6 -5 8 -12 4 -10 -6 -10 -4 0
8 9 11 9 17 2 20 -13 4 -2 38 12 38 5 0 6 -4 3 -10 -3 -5 -1 -10 4 -10 6 0 11
5 11 11 0 12 40 65 46 62 14 -9 24 1 25 25 1 16 3 20 6 10 2 -10 8 -18 13 -18
4 0 6 10 2 22 -5 21 -5 21 21 2 17 -12 24 -25 21 -36 -4 -12 0 -18 10 -18 21
0 20 12 -4 54 l-19 36 29 -4 c34 -4 38 5 13 25 -14 12 -16 12 -9 0 6 -9 5 -12
-3 -10 -7 3 -12 9 -12 14 0 17 28 17 45 0 15 -15 16 -15 16 1 0 11 3 14 9 9
15 -17 52 -87 42 -81 -5 4 -9 -2 -8 -13 2 -26 29 -42 45 -25 7 8 8 15 2 19
-10 6 -2 35 10 35 5 0 6 -10 2 -22 -3 -14 -2 -19 6 -14 7 4 12 4 12 -1 1 -33
50 -39 50 -6 0 12 -3 13 -14 4 -12 -10 -17 -9 -24 6 -12 22 -11 73 1 66 5 -3
7 -14 4 -24 -3 -11 -2 -17 3 -14 4 3 25 -13 46 -35 22 -22 44 -40 49 -40 6 0
3 4 -5 10 -18 11 -6 25 16 16 9 -3 14 -13 11 -20 -3 -8 1 -17 9 -20 8 -3 14 0
14 8 0 7 11 18 24 24 22 10 25 8 35 -19 5 -16 15 -29 21 -29 7 0 8 6 0 19 -18
34 -11 45 11 17 14 -17 18 -33 14 -48 -5 -18 -4 -20 4 -8 8 12 11 7 12 -20 1
-29 2 -31 7 -12 4 13 10 23 15 23 4 -1 12 -1 17 -1 6 0 10 -8 10 -17 0 -15 -2
-14 -16 3 -15 18 -15 18 -9 -9 3 -16 1 -34 -4 -41 -7 -8 -5 -21 5 -41 8 -15
11 -31 8 -34 -4 -3 -9 1 -12 9 -4 9 -10 0 -18 -25 l-12 -40 -12 30 c-7 17 -14
25 -17 18 -5 -14 26 -65 36 -58 9 5 7 -32 -2 -41 -4 -4 -12 -2 -19 3 -26 20
-48 11 -48 -19 0 -17 5 -27 12 -26 7 2 13 -3 12 -9 -1 -7 -2 -24 -2 -38 -2
-17 -8 -25 -19 -24 -11 0 -13 3 -5 6 20 8 14 20 -18 32 -16 5 -30 8 -30 6 0
-2 -3 -11 -7 -21 -4 -11 -3 -15 4 -11 6 4 13 0 17 -8 3 -8 1 -15 -4 -15 -6 0
-10 -12 -10 -27 -1 -26 -1 -27 -12 -8 -6 11 -12 21 -13 23 -2 2 -14 5 -29 8
-18 3 -25 0 -24 -8 4 -18 31 -28 40 -14 5 6 8 1 8 -12 0 -13 -4 -20 -10 -17
-11 7 -14 -38 -3 -49 15 -14 13 -46 -3 -46 -10 0 -14 6 -10 15 3 8 1 15 -4 15
-5 0 -16 12 -24 28 l-15 27 -1 -27 c0 -16 -4 -28 -10 -28 -5 0 -10 -5 -10 -10
0 -6 5 -9 11 -8 6 2 13 -2 16 -8 2 -7 -5 -10 -19 -7 -15 3 -30 -3 -42 -16 -18
-20 -43 -30 -32 -13 2 4 1 14 -5 22 -7 12 -9 10 -9 -8 0 -13 -4 -20 -10 -17
-5 3 -10 1 -10 -4 0 -6 11 -11 25 -11 16 0 25 -6 25 -16 0 -10 -6 -14 -14 -11
-9 4 -16 -3 -19 -18 -2 -14 0 -22 4 -19 9 5 12 -8 7 -23 -2 -4 -15 -7 -30 -7
-15 1 -25 -3 -22 -8 3 -4 10 -5 16 -2 7 4 8 2 4 -4 -4 -7 -18 -12 -32 -12 -15
0 -24 -6 -24 -16 0 -14 -3 -15 -17 -3 -12 9 -11 5 3 -11 12 -14 24 -33 28 -44
6 -17 5 -18 -16 -4 -13 8 -28 30 -34 49 -11 34 -35 46 -40 21 -1 -7 0 -8 3 -2
8 16 23 12 17 -5 -3 -8 2 -22 11 -31 11 -11 13 -20 6 -27 -5 -5 -7 -17 -4 -26
4 -13 2 -12 -10 2 -9 11 -13 25 -11 32 3 7 1 16 -5 19 -12 8 -22 -22 -17 -51
3 -13 0 -22 -6 -20 -6 1 -13 -4 -16 -12 -2 -8 0 -11 6 -7 6 3 13 2 16 -3 3 -5
-5 -12 -18 -15 -23 -6 -45 -36 -26 -36 6 0 10 4 10 9 0 6 9 9 20 8 11 -1 20
-7 20 -15 0 -7 -4 -10 -10 -7 -5 3 -10 -1 -10 -9 0 -11 -9 -15 -32 -13 -18 1
-35 -2 -37 -8 -2 -5 -12 -23 -23 -38 -15 -22 -17 -31 -8 -42 12 -15 -2 -55
-20 -55 -6 0 -10 -6 -10 -14 0 -8 -10 -22 -22 -31 -19 -13 -21 -17 -8 -25 8
-5 11 -12 7 -16 -4 -4 -13 -2 -19 4 -9 9 -9 18 0 37 7 14 12 34 12 44 0 12 7
18 18 17 13 -1 17 7 19 32 1 17 -3 30 -8 26 -5 -3 -9 2 -9 12 0 13 -5 10 -21
-10 -11 -15 -18 -34 -15 -42 4 -11 -1 -18 -14 -21 -11 -3 -20 -9 -20 -14 0
-16 5 -24 13 -21 4 1 7 -2 7 -7 0 -5 -9 -11 -21 -14 -12 -3 -19 -11 -16 -19 2
-7 -4 -25 -15 -40 -12 -18 -15 -29 -7 -33 7 -5 3 -12 -10 -22 -22 -15 -19 -39
2 -26 7 4 5 -2 -3 -12 -14 -17 -13 -18 3 -12 11 4 17 2 17 -7 0 -8 -7 -16 -15
-20 -8 -3 -15 -13 -15 -23 0 -15 2 -15 15 3 15 18 15 18 8 0 -5 -14 -3 -17 7
-11 9 5 11 4 6 -3 -4 -7 -12 -12 -17 -12 -20 0 -36 -26 -33 -53 1 -15 -2 -27
-7 -27 -6 0 -7 5 -4 10 11 18 -1 11 -21 -12 -19 -22 -19 -22 0 -8 17 13 19 13
14 0 -2 -8 -11 -15 -19 -15 -8 0 -20 -4 -26 -8 -8 -5 -13 -3 -13 3 0 6 -4 9
-10 5 -5 -3 -6 -13 -3 -22 5 -11 3 -14 -6 -9 -8 5 -10 18 -6 34 l7 27 -21 -27
c-12 -14 -21 -34 -21 -43 0 -9 -4 -24 -9 -34 -23 -42 -19 -133 6 -118 11 7 9
-40 -2 -50 -4 -5 -5 -3 -2 3 4 7 0 15 -8 18 -9 3 -20 16 -25 28 -9 23 -9 23
-9 1 -1 -12 -6 -23 -12 -25 -7 -2 -7 -12 1 -32 7 -20 7 -32 0 -41 -6 -7 -8
-20 -4 -29 5 -12 2 -15 -12 -9 -13 5 -15 3 -9 -7 9 -14 14 -70 8 -83 -3 -4
-11 0 -20 9 -14 13 -14 17 -2 25 11 7 11 9 -3 9 -10 0 -18 8 -18 17 0 12 -3
14 -10 7 -8 -8 -7 -19 0 -39 15 -38 5 -44 -14 -7 -8 16 -12 32 -9 36 4 3 1 6
-4 6 -6 0 -21 20 -33 45 -26 54 -37 60 -14 8 9 -21 18 -43 20 -49 7 -17 -22
-38 -32 -23 -5 8 -3 9 6 4 9 -5 11 -4 6 3 -10 17 -46 -4 -47 -26 0 -12 -3 -9
-10 8 -14 35 -17 36 -35 14 -15 -18 -15 -17 -10 15 4 21 1 40 -6 49 -10 12
-10 16 0 19 6 3 12 12 12 21 0 13 -3 12 -14 -4 -12 -16 -15 -16 -19 -4 -3 8
-8 22 -10 30 -3 8 -6 -4 -6 -26 -1 -48 -27 -81 -33 -42 -3 21 -6 19 -25 -17
-18 -32 -22 -35 -23 -18 0 12 -4 24 -8 27 -5 3 -7 28 -5 55 3 41 1 51 -12 51
-11 0 -15 10 -15 33 1 85 2 82 -18 64 -10 -10 -22 -14 -25 -10 -4 3 -7 1 -7
-5 0 -18 -18 -14 -22 4 -3 14 -7 13 -30 -6 -35 -27 -35 -20 -3 27 13 20 22 39
20 42 -3 3 -12 -5 -21 -17 -15 -22 -41 -21 -28 0 4 6 2 8 -4 4 -5 -3 -12 -3
-15 1 -2 5 -2 3 -1 -4 2 -7 -1 -15 -6 -18 -17 -10 -11 -25 7 -18 15 6 16 5 3
-9 -13 -14 -16 -14 -26 0 -6 8 -17 12 -25 9 -10 -4 -9 -6 4 -6 24 -1 11 -21
-13 -21 -10 0 -24 -8 -29 -17 -6 -10 -11 -12 -11 -5 0 6 -5 12 -11 12 -5 0 -7
-4 -4 -10 4 -6 -1 -7 -11 -3 -14 5 -14 7 5 17 17 9 19 14 9 24 -7 7 -18 12
-26 12 -8 0 -12 9 -10 23 2 12 -2 21 -9 20 -6 -1 -17 5 -25 14 -9 12 -9 15 0
9 17 -10 15 5 -5 29 -12 16 -14 16 -10 3 3 -10 2 -20 -4 -23 -5 -4 -6 -11 -3
-17 10 -15 -18 -29 -33 -16 -7 6 -13 15 -13 20 0 29 -83 46 -119 24 -6 -4 -14
1 -18 11 -4 10 -10 21 -15 24 -5 3 -10 16 -11 28 l-1 23 -18 -22 -18 -22 0 31
c0 22 -4 29 -14 25 -7 -3 -16 2 -20 12 -4 12 -2 15 9 10 20 -7 19 -4 -7 18
-17 15 -20 15 -15 3 3 -9 1 -17 -5 -19 -12 -4 18 -58 33 -58 5 0 9 -9 9 -21 0
-15 -5 -19 -16 -15 -12 5 -14 1 -9 -15 5 -15 4 -19 -4 -15 -6 4 -11 14 -11 23
0 9 -8 25 -17 35 -16 18 -16 19 3 13 19 -6 19 -6 -1 9 -11 9 -25 14 -32 12 -7
-3 -13 -2 -13 2 0 5 -7 17 -16 28 -8 10 -13 13 -9 7 4 -8 -1 -13 -13 -13 -21
0 -37 26 -22 35 4 3 16 2 27 -2 15 -6 16 -4 6 9 -7 8 -10 18 -6 21 8 9 -10 9
-31 1 -9 -3 -13 -10 -10 -15 3 -5 0 -9 -6 -9 -7 0 -10 6 -7 14 3 7 -2 24 -11
37 -15 23 -15 24 4 8 21 -18 54 -21 54 -6 0 5 -6 7 -14 4 -8 -3 -20 1 -26 9
-16 18 -25 18 -44 -2 -15 -14 -16 -14 -16 0 0 9 -3 15 -7 15 -22 -4 -33 3 -33
19 0 13 -2 14 -9 4 -7 -11 -10 -10 -15 3 -3 9 -6 24 -6 33 0 14 2 15 10 2 5
-8 12 -11 16 -7 11 10 -12 31 -25 23 -6 -4 -11 -14 -11 -22 0 -8 -5 -12 -10
-9 -6 4 -10 16 -8 28 2 15 -3 22 -17 25 -15 2 -17 1 -6 -6 11 -8 11 -14 -3
-33 -17 -24 -18 -23 -20 26 -1 19 -8 31 -19 33 -9 2 -17 8 -17 13 0 5 -7 9
-15 9 -8 0 -15 -5 -15 -11 0 -8 -5 -8 -15 1 -17 14 -21 35 -5 25 6 -3 7 1 4 9
-8 20 -24 21 -24 2 0 -21 -47 -16 -67 7 l-18 21 28 -17 c15 -10 27 -13 27 -7
0 5 3 9 8 8 13 -5 54 30 43 37 -6 3 -11 2 -11 -3 0 -14 -64 -21 -72 -8 -13 19
-9 29 7 16 12 -10 19 -10 27 -2 9 9 8 12 -4 12 -9 0 -18 9 -21 20 -3 11 -11
20 -19 20 -11 0 -10 -2 1 -9 22 -14 3 -32 -26 -25 -16 4 -28 2 -34 -7 -6 -11
-9 -10 -15 5 -4 10 -2 21 4 25 15 9 11 62 -5 79 -7 7 -17 11 -22 7 -5 -3 -12
-1 -16 5 -8 13 -45 7 -56 -11 -7 -12 -9 -12 -9 1 0 9 7 25 15 36 17 25 11 34
-22 34 -16 0 -23 6 -23 19 0 11 6 22 13 24 6 3 -5 6 -25 6 -21 1 -38 6 -38 12
0 6 7 9 15 6 24 -10 29 14 5 30 -14 10 -20 22 -17 34 3 11 0 19 -6 19 -8 0 -8
3 1 9 10 6 10 10 -3 21 -34 28 -12 27 35 -2 48 -29 51 -30 82 -15 18 8 44 18
58 22 14 4 52 22 85 40 33 18 80 39 105 46 25 7 61 25 81 40 19 15 47 31 62
34 28 7 161 132 192 179 19 28 49 157 60 253 5 47 2 81 -15 149 -26 104 -35
119 -95 164 -25 19 -44 38 -42 43 3 9 177 74 202 76 6 1 29 -17 50 -39z m75
-50 c0 -5 -4 -10 -10 -10 -5 0 -10 5 -10 10 0 6 5 10 10 10 6 0 10 -4 10 -10z
m54 -57 c-6 -45 -16 -61 -35 -56 -24 7 -24 15 1 31 11 7 20 19 20 27 0 8 4 15
8 15 5 0 8 -8 6 -17z m-478 -62 c87 -64 125 -204 91 -334 -21 -78 -49 -118
-127 -176 -59 -44 -273 -141 -310 -141 -7 0 -38 -12 -68 -26 -81 -38 -115 -41
-134 -13 -8 13 -18 35 -22 49 -8 28 -20 55 -65 151 -17 36 -34 68 -38 72 -7 8
-63 138 -63 148 0 3 24 18 53 34 28 15 61 36 72 46 11 10 47 30 80 44 52 23
109 49 240 111 55 26 180 63 216 63 24 1 48 -8 75 -28z m2184 -62 c0 -6 -4 -7
-10 -4 -5 3 -10 11 -10 16 0 6 5 7 10 4 6 -3 10 -11 10 -16z m150 11 c0 -5 -4
-10 -10 -10 -5 0 -10 5 -10 10 0 6 5 10 10 10 6 0 10 -4 10 -10z m17 -32 c-3
-8 -6 -5 -6 6 -1 11 2 17 5 13 3 -3 4 -12 1 -19z m10 -70 c-3 -7 -5 -2 -5 12
0 14 2 19 5 13 2 -7 2 -19 0 -25z m63 -99 c0 -4 -7 -6 -15 -3 -8 4 -15 10 -15
15 0 4 7 6 15 3 8 -4 15 -10 15 -15z m-1846 -130 c-3 -5 -10 -7 -15 -3 -5 3
-7 10 -3 15 3 5 10 7 15 3 5 -3 7 -10 3 -15z m-1393 -32 c7 -12 18 -26 25 -30
8 -4 14 -14 14 -22 0 -8 10 -38 23 -67 25 -58 26 -98 1 -77 -7 6 -11 16 -7 22
3 6 1 7 -5 3 -6 -4 -29 5 -51 19 -23 14 -44 25 -49 25 -4 0 -14 9 -22 20 -8
11 -20 20 -26 20 -7 0 -22 12 -34 27 -19 24 -24 26 -49 16 -17 -6 -35 -7 -42
-2 -8 5 -11 9 -6 9 16 0 22 4 32 16 6 8 41 25 80 38 75 26 95 23 116 -17z
m2361 -19 c-7 -7 -12 -8 -12 -2 0 14 12 26 19 19 2 -3 -1 -11 -7 -17z m778
-44 c0 -8 -5 -12 -10 -9 -6 4 -8 11 -5 16 9 14 15 11 15 -7z m-3200 -84 c0 -5
-2 -10 -4 -10 -3 0 -8 5 -11 10 -3 6 -1 10 4 10 6 0 11 -4 11 -10z m1340 -64
c0 -11 -19 -15 -25 -6 -3 5 1 10 9 10 9 0 16 -2 16 -4z m-1830 -36 c0 -5 -2
-10 -4 -10 -3 0 -8 5 -11 10 -3 6 -1 10 4 10 6 0 11 -4 11 -10z m-1625 -51
c-4 -5 1 -9 9 -9 12 0 13 -5 7 -22 -5 -13 -16 -22 -25 -22 -9 1 -16 -3 -16 -8
0 -5 -7 -2 -16 6 -18 18 -10 56 12 56 8 0 14 5 14 11 0 5 5 7 10 4 6 -4 8 -11
5 -16z m2369 -15 c4 -10 1 -14 -6 -12 -15 5 -23 28 -10 28 5 0 13 -7 16 -16z
m2683 -16 c4 -50 13 -68 36 -68 12 0 29 -5 37 -11 11 -8 6 -9 -20 -4 -19 4
-42 7 -50 8 -22 1 -41 29 -29 43 5 7 9 16 8 20 -3 18 1 34 9 34 4 0 9 -10 9
-22z m-3807 2 c0 -5 -4 -10 -10 -10 -5 0 -10 5 -10 10 0 6 5 10 10 10 6 0 10
-4 10 -10z m3865 -50 c3 -5 1 -10 -4 -10 -6 0 -11 5 -11 10 0 6 2 10 4 10 3 0
8 -4 11 -10z m-25 -60 c0 -5 -5 -10 -11 -10 -5 0 -7 5 -4 10 3 6 8 10 11 10 2
0 4 -4 4 -10z m5 -30 c-3 -5 -12 -10 -18 -10 -7 0 -6 4 3 10 19 12 23 12 15 0z
m-196 -73 c8 -10 7 -14 -4 -14 -8 0 -15 6 -15 14 0 7 2 13 4 13 2 0 9 -6 15
-13z m52 -44 c13 -15 12 -15 -8 -4 -24 12 -29 21 -14 21 5 0 15 -7 22 -17z
m69 13 c0 -3 -4 -8 -10 -11 -5 -3 -10 -1 -10 4 0 6 5 11 10 11 6 0 10 -2 10
-4z m-30 -16 c0 -5 -2 -10 -4 -10 -3 0 -8 5 -11 10 -3 6 -1 10 4 10 6 0 11 -4
11 -10z m-2416 -19 c3 -5 0 -11 -7 -14 -8 -3 -14 1 -14 9 0 16 13 19 21 5z
m-64 -11 c0 -5 -2 -10 -4 -10 -3 0 -8 5 -11 10 -3 6 -1 10 4 10 6 0 11 -4 11
-10z m2350 0 c0 -5 -4 -10 -10 -10 -5 0 -10 5 -10 10 0 6 5 10 10 10 6 0 10
-4 10 -10z m130 -30 c0 -5 -2 -10 -4 -10 -3 0 -8 5 -11 10 -3 6 -1 10 4 10 6
0 11 -4 11 -10z m-130 -10 c0 -5 -4 -10 -10 -10 -5 0 -10 5 -10 10 0 6 5 10
10 10 6 0 10 -4 10 -10z m-70 -35 c7 -9 8 -15 2 -15 -5 0 -12 7 -16 15 -3 8
-4 15 -2 15 2 0 9 -7 16 -15z m-2164 -9 c17 -18 8 -46 -15 -46 -13 0 -13 2 -2
9 10 7 11 13 2 30 -13 24 -6 28 15 7z m2199 -10 c0 -13 -5 -22 -11 -19 -7 2
-10 13 -7 24 7 27 18 24 18 -5z m-2151 -7 c-8 -14 -24 -10 -24 6 0 9 6 12 15
9 8 -4 12 -10 9 -15z m2323 15 c-3 -3 -12 -4 -19 -1 -8 3 -5 6 6 6 11 1 17 -2
13 -5z m-1672 -34 c3 -5 -1 -10 -10 -10 -9 0 -13 5 -10 10 3 6 8 10 10 10 2 0
7 -4 10 -10z m1540 0 c3 -5 -1 -10 -10 -10 -9 0 -13 5 -10 10 3 6 8 10 10 10
2 0 7 -4 10 -10z m-40 -15 c39 -14 39 -14 10 -15 -22 0 -26 -3 -15 -9 8 -6 17
-8 21 -5 4 2 10 1 13 -4 3 -5 0 -9 -7 -9 -7 0 -26 -3 -44 -7 -19 -4 -34 -3
-38 3 -3 6 -12 11 -18 11 -7 0 -1 -9 13 -20 l25 -20 -25 9 c-29 10 -35 44 -13
67 18 17 28 17 78 -1z m-155 -5 c0 -5 -5 -10 -11 -10 -5 0 -7 5 -4 10 3 6 8
10 11 10 2 0 4 -4 4 -10z m-1353 -22 c-3 -8 -6 -5 -6 6 -1 11 2 17 5 13 3 -3
4 -12 1 -19z m-587 -9 c0 -5 -4 -9 -10 -9 -5 0 -10 7 -10 16 0 8 5 12 10 9 6
-3 10 -10 10 -16z m2080 -29 c0 -5 -5 -10 -11 -10 -5 0 -7 5 -4 10 3 6 8 10
11 10 2 0 4 -4 4 -10z m-4450 -20 c0 -14 -7 -20 -23 -20 -13 0 -26 3 -30 6
-12 12 6 34 29 34 17 0 24 -6 24 -20z m2445 -20 c3 -5 1 -10 -4 -10 -6 0 -11
5 -11 10 0 6 2 10 4 10 3 0 8 -4 11 -10z m1882 -27 c-3 -3 -11 -2 -17 2 -9 6
-9 10 1 16 14 8 27 -7 16 -18z m47 6 c-8 -14 -21 -11 -21 5 0 8 6 12 14 9 7
-3 10 -9 7 -14z m-1829 -37 c-3 -3 -11 0 -18 7 -9 10 -8 11 6 5 10 -3 15 -9
12 -12z m1710 8 c-3 -5 0 -10 7 -10 10 0 9 -3 -2 -9 -8 -6 -19 -7 -25 -3 -5 3
-4 -2 4 -11 8 -10 9 -17 3 -17 -6 0 -14 4 -17 10 -7 12 12 50 26 50 6 0 7 -4
4 -10z m110 -4 c16 -11 17 -17 7 -29 -10 -12 -10 -16 0 -20 8 -4 7 -6 -4 -6
-13 -1 -18 7 -18 28 0 16 -6 32 -12 34 -7 3 -8 6 -2 6 5 1 19 -5 29 -13z m79
-4 c2 -4 -4 -8 -14 -8 -10 0 -16 4 -14 8 3 4 9 8 14 8 5 0 11 -4 14 -8z m-134
-6 c0 -11 -19 -15 -25 -6 -3 5 1 10 9 10 9 0 16 -2 16 -4z m155 -26 c-12 -5
-14 -9 -6 -9 8 -1 12 -4 8 -7 -9 -9 -28 6 -22 17 4 5 14 9 23 8 14 0 13 -2 -3
-9z m-158 -6 c-3 -3 -12 -4 -19 -1 -8 3 -5 6 6 6 11 1 17 -2 13 -5z m123 -21
c-1 -24 -2 -26 -11 -10 -5 9 -7 22 -4 27 10 17 15 11 15 -17z m-99 4 c-6 -8
-8 -17 -4 -20 3 -4 12 -2 20 4 10 9 13 8 13 -4 0 -21 -29 -30 -37 -11 -3 9
-12 13 -21 9 -12 -5 -12 -1 3 15 20 22 44 28 26 7z m-3061 -38 c0 -18 -18 -9
-23 12 -4 16 -3 18 9 8 8 -6 14 -15 14 -20z m3020 -9 c0 -5 -4 -10 -10 -10 -5
0 -10 5 -10 10 0 6 5 10 10 10 6 0 10 -4 10 -10z m-527 -84 c-20 -39 -53 -72
-53 -53 0 7 7 22 15 33 8 10 15 26 15 35 0 8 5 20 12 27 21 21 28 -9 11 -42z
m-1040 13 c3 -13 1 -19 -6 -16 -15 5 -22 37 -9 37 5 0 12 -9 15 -21z m-3083 1
c0 -5 -2 -10 -4 -10 -3 0 -8 5 -11 10 -3 6 -1 10 4 10 6 0 11 -4 11 -10z
m1663 -16 c-4 -12 -8 -13 -14 -3 -9 15 -2 32 11 24 5 -3 6 -13 3 -21z m1557
-88 c0 -3 -4 -8 -10 -11 -5 -3 -10 -1 -10 4 0 6 5 11 10 11 6 0 10 -2 10 -4z
m1250 -46 c0 -5 -5 -10 -11 -10 -5 0 -7 5 -4 10 3 6 8 10 11 10 2 0 4 -4 4
-10z m-959 -32 c7 -18 14 -36 17 -40 2 -5 0 -8 -5 -8 -7 0 -22 26 -40 68 -3 6
-1 12 5 12 6 0 16 -15 23 -32z m-101 -8 c0 -32 -17 -31 -18 1 0 16 4 27 9 24
5 -4 9 -15 9 -25z m64 5 c3 -8 1 -15 -3 -15 -5 0 -11 7 -15 15 -3 8 -1 15 3
15 5 0 11 -7 15 -15z m126 -46 c0 -6 -4 -7 -10 -4 -5 3 -10 11 -10 16 0 6 5 7
10 4 6 -3 10 -11 10 -16z m-925 -37 c-6 -7 -34 29 -34 43 0 6 9 -1 20 -14 11
-13 17 -26 14 -29z m785 7 c0 -6 -4 -7 -10 -4 -5 3 -10 11 -10 16 0 6 5 7 10
4 6 -3 10 -11 10 -16z m267 -67 c-4 -13 -5 -12 -6 5 0 12 -5 25 -11 28 -5 3
-10 11 -10 18 0 6 7 1 16 -11 8 -12 13 -30 11 -40z m209 -49 c-10 -10 -19 5
-10 18 6 11 8 11 12 0 2 -7 1 -15 -2 -18z m292 -177 c-7 -8 -15 -12 -17 -11
-5 6 10 25 20 25 5 0 4 -6 -3 -14z m-187 -49 c10 -10 19 -21 20 -25 0 -4 2
-16 4 -26 2 -11 0 -27 -5 -35 -9 -17 -8 -18 -25 34 -2 8 0 15 6 15 6 0 5 9 -2
22 -12 22 -12 22 -19 3 -5 -13 -7 -4 -7 25 0 25 2 36 5 25 2 -11 13 -28 23
-38z m-441 -687 c0 -5 -4 -10 -10 -10 -5 0 -10 5 -10 10 0 6 5 10 10 10 6 0
10 -4 10 -10z m1870 -369 c0 -6 -4 -13 -10 -16 -5 -3 -10 1 -10 9 0 9 5 16 10
16 6 0 10 -4 10 -9z m137 -135 c-13 -14 -16 -14 -29 1 -11 15 -11 16 4 10 10
-3 20 -2 24 4 3 6 8 8 11 5 3 -3 -1 -12 -10 -20z m-1245 -18 c8 -22 -2 -36
-22 -31 -11 3 -20 10 -20 15 0 5 5 6 10 3 6 -3 10 1 10 9 0 19 16 21 22 4z
m313 -28 c3 -5 1 -10 -4 -10 -6 0 -11 5 -11 10 0 6 2 10 4 10 3 0 8 -4 11 -10z
m839 3 c4 -5 13 -8 19 -8 5 0 12 -6 15 -12 2 -7 -2 -13 -8 -13 -10 0 -10 -3
-1 -14 9 -10 9 -16 1 -21 -13 -8 -52 24 -44 36 3 5 -5 9 -17 9 -18 0 -19 2 -9
15 13 16 32 19 44 8z m-1056 -15 c-6 -18 -28 -21 -28 -4 0 9 7 16 16 16 9 0
14 -5 12 -12z m-258 -8 c0 -5 -4 -10 -10 -10 -5 0 -10 5 -10 10 0 6 5 10 10
10 6 0 10 -4 10 -10z m200 -41 c-14 -4 -19 -7 -11 -8 11 -1 10 -5 -5 -16 -10
-8 -23 -14 -29 -14 -5 0 -3 4 6 9 11 6 15 19 12 37 -3 19 -2 24 5 15 7 -11 11
-8 16 10 l6 23 13 -25 c12 -23 11 -25 -13 -31z m917 11 c-5 -21 16 -45 32 -36
5 4 12 2 16 -4 11 -18 23 -10 23 16 0 41 19 52 33 20 10 -22 10 -29 0 -35 -16
-10 0 -45 24 -55 17 -6 19 -15 6 -35 -7 -12 -14 -10 -36 8 -20 15 -42 21 -80
21 -34 0 -57 5 -65 15 -10 12 -16 12 -34 2 -28 -16 -74 -16 -80 0 -3 8 2 13
13 13 9 0 27 11 39 25 21 24 33 29 58 26 6 -1 19 8 30 18 24 25 27 25 21 1z
m-275 -7 c24 -21 23 -49 -2 -56 -20 -5 -54 18 -47 31 2 4 7 15 10 25 8 21 15
21 39 0z m458 -17 c0 -3 -4 -8 -10 -11 -5 -3 -10 -1 -10 4 0 6 5 11 10 11 6 0
10 -2 10 -4z m-821 -20 c7 -9 8 -17 2 -20 -5 -3 -7 -16 -5 -29 2 -12 2 -16 -2
-9 -11 22 -24 12 -18 -13 6 -25 5 -25 -20 -14 -29 13 -28 13 -31 52 -1 15 2
27 6 27 5 0 9 -7 9 -15 0 -13 3 -13 20 -3 11 7 16 14 10 16 -11 4 -4 22 9 22
5 0 14 -6 20 -14z m-514 -37 c4 -10 11 -19 17 -19 5 0 8 -7 4 -15 -3 -10 1
-15 13 -15 10 0 24 -6 30 -14 7 -8 26 -12 54 -10 72 6 77 -7 21 -65 -45 -47
-74 -63 -74 -42 0 15 -31 21 -52 10 -14 -8 -18 -17 -14 -34 6 -25 -37 -85 -61
-85 -7 0 -13 -5 -13 -11 0 -5 -4 -7 -10 -4 -16 10 -12 38 5 31 18 -7 20 8 3
26 -21 22 -22 49 -1 42 10 -4 1 10 -20 30 -21 20 -42 36 -46 36 -5 0 -6 12 -3
26 3 16 9 23 18 20 10 -4 14 3 14 20 0 17 7 28 20 31 13 3 20 14 20 29 0 15 6
24 15 24 8 0 15 4 15 9 0 17 39 -1 45 -20z m741 -19 c-3 -22 -3 -40 1 -40 5 0
17 -14 28 -30 11 -16 26 -30 34 -30 7 0 11 -6 7 -15 -6 -17 32 -47 47 -38 6 4
8 0 4 -10 -3 -10 -2 -17 3 -17 6 0 10 5 10 11 0 5 5 7 10 4 15 -9 -17 -38 -32
-29 -10 5 -10 4 -1 -6 9 -9 19 -10 42 -2 27 10 32 8 42 -10 10 -18 9 -20 -5
-15 -9 4 -16 3 -16 -2 0 -4 -15 -7 -34 -7 -19 1 -32 4 -29 9 2 4 0 7 -5 7 -5
0 -12 -10 -15 -21 -5 -17 -11 -20 -31 -17 -21 4 -27 0 -35 -25 -8 -20 -15 -27
-26 -23 -10 3 -15 -1 -15 -11 0 -14 -2 -14 -14 3 -8 10 -11 23 -6 29 12 15
-28 92 -60 115 -17 12 -27 29 -27 45 0 13 4 22 9 19 6 -4 5 3 -1 15 -7 11 -17
21 -22 21 -6 0 -9 6 -6 14 3 8 1 17 -6 20 -8 3 -6 5 3 5 8 1 21 10 28 22 8 12
19 18 28 15 8 -3 17 1 21 10 4 11 13 14 29 10 14 -4 24 -2 24 4 0 5 5 10 11
10 8 0 9 -13 5 -40z m-281 -80 c3 -6 -4 -14 -17 -19 -28 -10 -30 -9 -22 13 7
18 29 21 39 6z m775 -14 c0 4 7 1 15 -6 8 -7 15 -17 15 -23 0 -8 -3 -8 -11 0
-6 6 -18 9 -25 6 -18 -7 -44 14 -44 34 0 13 3 13 25 -1 14 -9 25 -14 25 -10z
m-82 5 c11 -6 10 -9 -5 -13 -22 -6 -43 0 -43 13 0 11 31 12 48 0z m136 3 c9
-3 13 -10 10 -15 -8 -14 -21 -11 -28 6 -6 17 -4 18 18 9z m-804 -23 c0 -15
-33 -22 -44 -10 -8 9 -7 10 7 6 9 -4 17 -2 17 3 0 6 5 10 10 10 6 0 10 -4 10
-9z m-100 -17 c0 -8 -4 -12 -10 -9 -5 3 -10 10 -10 16 0 5 5 9 10 9 6 0 10 -7
10 -16z m-90 -25 c0 -17 -42 -82 -62 -97 -24 -17 -13 -36 12 -22 24 13 67 13
75 0 4 -6 11 -7 17 -4 7 5 9 -5 4 -30 -6 -30 -4 -36 11 -37 41 -3 46 -5 50
-16 3 -7 -2 -16 -11 -19 -23 -9 -20 -26 4 -19 27 9 25 -10 -2 -29 -27 -19 -42
-21 -32 -3 4 7 3 9 -2 4 -5 -5 -9 -14 -9 -20 0 -13 -64 -47 -106 -56 -26 -6
-26 -7 -13 -26 10 -13 17 -16 22 -9 4 6 24 14 45 18 21 4 54 18 74 32 37 25
37 25 45 4 4 -11 15 -21 25 -21 66 -5 92 -3 123 5 19 5 41 9 48 7 15 -2 74 29
85 47 4 6 14 12 22 12 7 0 15 6 18 13 3 10 9 10 26 0 30 -19 33 -16 16 11 -15
23 -15 25 3 35 22 12 62 4 62 -13 0 -7 -11 -22 -25 -34 -27 -24 -25 -48 5 -48
10 0 16 4 14 8 -3 4 1 8 8 9 7 0 21 2 30 4 11 2 16 -3 15 -15 0 -10 -7 -16
-14 -13 -7 3 -16 -9 -22 -29 -9 -30 -10 -31 -16 -11 -4 13 -11 20 -16 17 -5
-3 -18 0 -29 6 -20 11 -30 -3 -10 -15 21 -13 9 -24 -16 -15 -17 7 -23 7 -19 0
7 -11 -15 -80 -26 -80 -4 0 -5 -9 -2 -20 5 -18 3 -19 -21 -10 -43 16 -73 12
-79 -10 -3 -11 -1 -18 3 -15 14 8 23 -16 12 -27 -8 -8 -16 -7 -28 3 -15 12
-16 12 -10 -9 5 -13 3 -22 -3 -22 -6 0 -11 6 -11 13 0 6 -7 -1 -16 -18 -33
-65 -118 -132 -144 -114 -12 8 -10 13 13 32 42 35 35 47 -28 47 -44 0 -55 3
-55 16 0 13 -3 14 -14 5 -8 -7 -25 -9 -38 -6 -17 4 -29 0 -42 -14 -23 -25 -36
-27 -36 -5 0 14 -3 14 -15 4 -12 -10 -19 -10 -27 -2 -7 7 -17 12 -22 12 -6 0
-5 -5 2 -12 21 -21 13 -27 -15 -12 -16 7 -37 14 -47 14 -18 0 -18 -1 -2 -19
21 -23 14 -42 -12 -35 -9 2 -2 -3 17 -11 26 -12 36 -13 41 -4 5 8 10 5 15 -10
3 -11 13 -21 21 -21 26 0 48 -28 35 -44 -9 -11 -9 -16 1 -22 21 -14 122 -56
135 -57 6 0 11 -7 11 -16 0 -9 3 -26 7 -38 5 -15 3 -23 -4 -23 -7 0 -9 5 -6
10 3 6 2 10 -4 10 -6 0 -13 11 -17 25 l-6 25 -19 -21 c-12 -15 -25 -20 -40
-16 -12 3 -28 0 -36 -9 -8 -8 -24 -14 -36 -13 -12 0 -17 3 -10 5 20 9 3 34
-23 34 -17 0 -22 4 -18 15 4 8 1 15 -4 15 -6 0 -12 -10 -14 -22 -2 -14 -13
-25 -28 -29 -14 -4 -19 -7 -12 -8 9 -1 10 -6 2 -20 -15 -29 -13 -32 16 -21 32
13 34 12 34 -1 0 -12 -35 -60 -41 -56 -2 1 9 -10 24 -26 15 -15 25 -32 22 -37
-7 -12 -45 -8 -45 4 0 6 -5 5 -11 -1 -6 -6 -18 -9 -25 -6 -8 3 -14 -1 -14 -10
0 -12 -6 -14 -29 -7 -15 4 -40 6 -55 3 -26 -5 -37 11 -13 20 7 3 5 6 -5 6 -10
1 -20 12 -24 26 -7 29 -28 33 -43 8 -9 -16 -12 -16 -21 -3 -8 13 -10 12 -10
-5 0 -17 -2 -17 -10 -5 -6 10 -10 11 -10 3 0 -7 -7 -13 -15 -13 -8 0 -15 7
-15 15 0 8 5 15 10 15 6 0 10 5 10 11 0 8 -5 8 -15 -1 -8 -7 -15 -19 -15 -26
0 -16 -17 -19 -22 -3 -5 16 -38 -1 -37 -20 0 -15 1 -15 11 0 11 15 13 15 27
-2 14 -17 19 -18 41 -6 31 16 76 7 72 -15 -1 -9 2 -19 7 -23 6 -3 8 -12 4 -21
-3 -8 2 -21 12 -28 13 -9 15 -15 6 -20 -6 -4 -9 -11 -6 -16 3 -5 -4 -12 -16
-15 -12 -4 -18 -12 -15 -21 7 -19 -1 -18 -28 4 -19 15 -21 20 -10 30 18 17 18
27 -3 47 -10 10 -26 15 -41 12 -18 -3 -26 0 -29 14 -3 10 -10 16 -15 13 -5 -3
-7 -12 -4 -20 7 -19 -1 -18 -30 5 -16 13 -20 21 -12 23 9 3 8 10 -5 23 -15 15
-22 16 -41 5 -19 -10 -28 -9 -47 1 -13 7 -26 12 -29 11 -3 -1 -5 4 -5 11 0 6
9 11 20 10 11 -1 27 0 35 4 8 3 19 7 24 7 15 2 24 40 13 54 -5 7 -7 16 -3 19
11 11 36 12 36 1 0 -6 -8 -7 -17 -4 -17 6 -17 5 0 -8 9 -7 17 -18 17 -24 0
-20 24 -3 43 29 15 28 16 31 1 25 -11 -4 -15 -2 -11 8 3 8 1 17 -6 19 -7 2 10
28 41 60 28 31 52 63 52 71 0 9 4 16 8 16 5 0 21 17 35 37 24 34 25 39 12 60
-21 31 -20 33 21 21 30 -8 43 -6 70 8 36 20 44 34 19 34 -9 0 -15 9 -15 22 0
20 1 20 18 5 10 -10 26 -17 35 -17 25 0 30 -18 8 -30 -12 -6 -18 -16 -15 -25
8 -19 24 -19 24 0 0 9 6 12 18 8 14 -5 15 -3 5 7 -9 10 -10 17 -2 27 7 7 8 13
5 13 -4 0 -2 9 4 19 8 16 6 21 -10 26 -11 3 -30 3 -42 -1 -13 -4 -33 -7 -44
-5 -18 2 -21 -2 -18 -27 4 -34 -19 -39 -46 -12 -21 21 -13 39 43 93 50 48 97
73 107 57 4 -7 17 -9 34 -4 23 5 26 10 22 33 -3 14 -3 31 2 38 10 16 59 34 76
27 7 -3 16 1 19 10 8 20 -15 27 -38 10 -20 -15 -65 -19 -65 -6 0 4 14 16 32
26 30 19 31 20 10 27 -26 10 -27 13 -6 33 19 20 54 21 54 2 0 -7 6 -19 13 -25
11 -8 16 -5 25 14 16 34 54 33 80 -2 18 -25 21 -26 27 -10 9 22 -12 48 -32 40
-13 -5 -15 -1 -11 18 3 18 -2 30 -18 42 -20 15 -23 15 -39 -3 -11 -12 -14 -26
-10 -39 3 -12 2 -21 -4 -21 -13 0 -24 37 -15 51 4 7 3 9 -4 5 -6 -3 -17 2 -24
12 -14 19 -58 52 -70 52 -4 0 -18 -11 -31 -24 -14 -14 -27 -24 -29 -23 -2 1 0
-2 4 -7 4 -5 14 -1 23 8 23 23 26 20 14 -11 -5 -16 -12 -34 -14 -41 -7 -19
-46 4 -43 25 2 9 -3 18 -9 20 -8 3 -13 -4 -13 -16 0 -12 -4 -21 -10 -21 -5 0
-10 9 -10 20 0 11 3 20 8 20 4 0 15 14 24 30 14 25 24 30 53 30 21 0 52 10 75
25 23 14 54 25 75 25 24 0 35 5 35 15 0 8 5 15 10 15 6 0 10 -5 10 -11z m123
-4 c-3 -9 -8 -14 -10 -11 -3 3 -2 9 2 15 9 16 15 13 8 -4z m-1141 -37 c-4 -18
-6 -18 -20 -4 -13 13 -13 18 -2 31 16 20 30 3 22 -27z m304 16 c-3 -8 -2 -12
3 -9 5 3 12 1 15 -4 4 -5 2 -12 -4 -16 -5 -3 -7 -20 -5 -38 3 -18 2 -25 -1
-17 -4 8 -23 30 -43 49 -30 29 -32 33 -13 29 15 -4 22 -2 22 8 0 8 7 14 16 14
10 0 14 -5 10 -16z m976 -66 c-7 -7 -12 -8 -12 -2 0 14 12 26 19 19 2 -3 -1
-11 -7 -17z m-992 -8 c0 -5 8 -18 18 -28 16 -16 17 -22 6 -36 -15 -21 -34 -13
-34 14 0 30 -17 32 -24 4 -4 -15 -9 -24 -12 -21 -10 10 19 77 33 77 7 0 13 -4
13 -10z m1340 -10 c0 -5 -4 -10 -10 -10 -5 0 -10 5 -10 10 0 6 5 10 10 10 6 0
10 -4 10 -10z m-40 -10 c0 -5 -2 -10 -4 -10 -3 0 -8 5 -11 10 -3 6 -1 10 4 10
6 0 11 -4 11 -10z m-443 -22 c-3 -8 -6 -5 -6 6 -1 11 2 17 5 13 3 -3 4 -12 1
-19z m63 -8 c0 -5 -4 -10 -10 -10 -5 0 -10 5 -10 10 0 6 5 10 10 10 6 0 10 -4
10 -10z m400 6 c0 -3 -4 -8 -10 -11 -5 -3 -10 -1 -10 4 0 6 5 11 10 11 6 0 10
-2 10 -4z m-221 -15 c8 -5 9 -11 3 -15 -5 -3 -15 1 -22 9 -14 16 -3 20 19 6z
m-524 -11 c-3 -5 -11 -10 -16 -10 -6 0 -7 5 -4 10 3 6 11 10 16 10 6 0 7 -4 4
-10z m469 -18 c3 -5 -1 -9 -9 -9 -8 0 -15 4 -15 9 0 4 4 8 9 8 6 0 12 -4 15
-8z m286 4 c0 -3 -4 -8 -10 -11 -5 -3 -10 -1 -10 4 0 6 5 11 10 11 6 0 10 -2
10 -4z m-876 -19 c3 4 6 -1 6 -9 0 -9 -8 -22 -17 -29 -15 -12 -16 -12 -10 3 4
12 0 19 -14 23 -10 4 -19 10 -19 15 0 6 10 6 24 0 13 -5 27 -6 30 -3z m500 -2
c-6 -16 -24 -21 -24 -7 0 11 11 22 21 22 5 0 6 -7 3 -15z m186 11 c0 -3 -4 -8
-10 -11 -5 -3 -10 -1 -10 4 0 6 5 11 10 11 6 0 10 -2 10 -4z m330 -6 c0 -5 -2
-10 -4 -10 -3 0 -8 5 -11 10 -3 6 -1 10 4 10 6 0 11 -4 11 -10z m-914 -31 c8
-6 14 -21 14 -32 0 -11 -3 -17 -6 -14 -4 3 -15 2 -24 -3 -15 -8 -22 -3 -39 30
l-20 39 30 -4 c17 -2 37 -9 45 -16z m887 6 c-3 -9 -8 -14 -10 -11 -3 3 -2 9 2
15 9 16 15 13 8 -4z m67 5 c0 -5 -4 -10 -10 -10 -5 0 -10 5 -10 10 0 6 5 10
10 10 6 0 10 -4 10 -10z m-385 -30 c0 -7 -6 -15 -12 -17 -8 -3 -13 4 -13 17 0
13 5 20 13 18 6 -3 12 -11 12 -18z m222 -31 c1 -15 0 -17 -3 -6 -3 9 -9 15
-13 12 -14 -8 -45 21 -37 34 12 19 51 -11 53 -40z m30 35 c-3 -3 -12 -4 -19
-1 -8 3 -5 6 6 6 11 1 17 -2 13 -5z m-1452 -15 c-4 -5 1 -19 10 -29 15 -17 16
-24 5 -50 -9 -22 -16 -28 -23 -21 -18 18 -27 13 -27 -15 0 -15 -4 -23 -11 -19
-6 4 -10 1 -9 -6 4 -26 -11 -55 -33 -64 -12 -6 -22 -15 -22 -22 0 -20 -14 -26
-30 -13 -15 12 -17 9 -17 -30 -1 -3 2 -19 5 -35 5 -28 3 -31 -21 -30 -39 0
-44 49 -9 81 14 13 29 34 33 46 4 13 12 27 19 33 7 5 15 28 18 49 4 22 13 44
22 48 8 5 15 14 15 21 0 7 -4 6 -10 -3 -5 -8 -10 -10 -10 -4 0 16 25 35 34 27
4 -4 4 0 1 9 -5 13 -2 15 14 11 14 -3 23 0 27 11 3 9 10 16 16 16 5 0 6 -5 3
-11z m1115 -19 c0 -5 -4 -10 -10 -10 -5 0 -10 5 -10 10 0 6 5 10 10 10 6 0 10
-4 10 -10z m364 -32 c-3 -4 -9 -8 -15 -8 -5 0 -9 4 -9 8 0 5 7 9 15 9 8 0 12
-4 9 -9z m-1118 -75 c-10 -10 -19 5 -10 18 6 11 8 11 12 0 2 -7 1 -15 -2 -18z
m244 13 c0 -3 -4 -8 -10 -11 -5 -3 -10 -1 -10 4 0 6 5 11 10 11 6 0 10 -2 10
-4z m785 -16 c-3 -5 -12 -10 -18 -10 -7 0 -6 4 3 10 19 12 23 12 15 0z m-953
-32 c-15 -15 -24 -6 -16 16 5 12 10 14 17 7 8 -8 8 -14 -1 -23z m853 12 c3 -5
-1 -10 -10 -10 -9 0 -13 5 -10 10 3 6 8 10 10 10 2 0 7 -4 10 -10z m65 -22 c0
-25 -3 -29 -10 -18 -13 20 -13 50 0 50 6 0 10 -15 10 -32z m-45 -28 c3 -5 2
-10 -4 -10 -5 0 -13 5 -16 10 -3 6 -2 10 4 10 5 0 13 -4 16 -10z m-1395 -64
c0 -18 -17 -29 -30 -21 -8 5 -7 11 1 21 15 18 29 18 29 0z m1250 -76 c0 -5 -7
-10 -15 -10 -8 0 -15 5 -15 10 0 6 7 10 15 10 8 0 15 -4 15 -10z m-1390 -10
c0 -5 -5 -10 -11 -10 -5 0 -7 5 -4 10 3 6 8 10 11 10 2 0 4 -4 4 -10z m1040
-14 c0 -11 -33 -36 -41 -31 -19 12 -9 35 16 35 14 0 25 -2 25 -4z m-480 -26
c0 -5 -4 -10 -10 -10 -5 0 -10 5 -10 10 0 6 5 10 10 10 6 0 10 -4 10 -10z
m770 -10 c0 -5 -4 -10 -10 -10 -5 0 -10 5 -10 10 0 6 5 10 10 10 6 0 10 -4 10
-10z m-1350 -20 c0 -5 -5 -10 -11 -10 -5 0 -7 5 -4 10 3 6 8 10 11 10 2 0 4
-4 4 -10z m1158 -21 c-2 -6 -8 -10 -13 -10 -5 0 -11 4 -13 10 -2 6 4 11 13 11
9 0 15 -5 13 -11z m-152 -46 c-10 -10 -19 5 -10 18 6 11 8 11 12 0 2 -7 1 -15
-2 -18z m189 -103 c3 -5 1 -10 -4 -10 -6 0 -11 5 -11 10 0 6 2 10 4 10 3 0 8
-4 11 -10z m718 -99 c39 -78 64 -114 124 -175 66 -68 181 -172 254 -230 13
-11 54 -45 90 -75 96 -81 176 -142 244 -188 34 -23 67 -49 75 -58 8 -10 32
-28 52 -41 43 -28 154 -163 175 -214 8 -19 23 -54 34 -77 10 -24 19 -56 19
-72 0 -16 5 -42 10 -57 6 -14 15 -55 20 -91 7 -53 5 -75 -10 -123 -10 -32 -23
-84 -29 -115 -14 -74 -57 -209 -76 -239 -10 -14 -13 -34 -9 -53 4 -23 1 -34
-13 -44 -19 -15 -30 -32 -72 -113 -14 -27 -38 -58 -53 -69 -15 -11 -28 -25
-28 -30 0 -5 -9 -20 -20 -34 -11 -14 -20 -38 -20 -54 0 -15 -5 -31 -11 -35 -6
-4 -24 -35 -40 -69 -41 -90 -41 -90 -167 -77 -59 7 -165 17 -237 23 -71 6
-136 16 -142 21 -23 19 -16 48 52 193 13 28 26 58 29 67 12 39 -50 151 -129
233 -24 24 -40 46 -37 50 3 3 -4 8 -16 12 -12 3 -22 12 -22 19 0 8 -5 14 -10
14 -6 0 -24 14 -42 30 -17 17 -37 30 -43 30 -7 0 -15 7 -19 15 -3 8 -15 15
-26 15 -14 0 -24 10 -31 30 -9 26 -15 29 -36 24 -19 -5 -30 -2 -42 15 -9 11
-38 36 -66 53 -27 18 -54 43 -60 55 -5 13 -22 27 -37 32 -16 6 -28 15 -28 20
0 6 -7 11 -15 11 -8 0 -16 6 -16 13 -1 6 -2 18 -3 24 0 7 -17 21 -36 31 -19
11 -40 29 -46 41 -7 14 -14 19 -19 12 -3 -6 -11 -8 -17 -5 -7 4 -6 9 3 14 9 6
9 12 -4 24 -9 9 -20 15 -24 14 -13 -4 -53 26 -53 39 0 7 -10 15 -23 18 -13 4
-40 33 -66 71 -24 35 -49 64 -56 64 -7 0 -20 11 -31 24 -10 14 -21 23 -26 20
-10 -7 -71 62 -81 92 -5 13 -14 24 -20 24 -29 1 -41 20 -43 72 -2 60 27 134
58 144 16 5 22 16 19 36 -1 8 7 5 99 -39 95 -46 113 -49 140 -21 11 13 34 46
50 74 16 28 39 59 51 70 12 10 55 64 95 119 40 55 85 115 100 133 15 18 49 64
75 101 26 37 77 94 113 125 36 32 68 67 72 79 7 23 33 57 43 57 3 -1 28 -45
54 -99z m375 74 c-3 -3 -9 2 -12 12 -6 14 -5 15 5 6 7 -7 10 -15 7 -18z
m-1128 -5 c0 -5 -2 -10 -4 -10 -3 0 -8 5 -11 10 -3 6 -1 10 4 10 6 0 11 -4 11
-10z m-95 -10 c-3 -5 -10 -10 -16 -10 -5 0 -9 5 -9 10 0 6 7 10 16 10 8 0 12
-4 9 -10z m-119 -66 c-5 -14 -9 -14 -23 -3 -15 13 -15 12 -4 -8 11 -22 11 -22
-13 -11 l-26 11 22 19 c21 18 23 18 29 1 6 -15 8 -14 9 7 1 14 4 19 7 12 3 -7
2 -20 -1 -28z m-1243 2 c6 -15 -1 -26 -15 -26 -4 0 -8 9 -8 20 0 23 15 27 23
6z m1274 -123 c-9 -8 -48 8 -42 18 4 5 14 5 26 -2 12 -6 18 -13 16 -16z m-224
2 c-3 -9 -8 -14 -10 -11 -3 3 -2 9 2 15 9 16 15 13 8 -4z m157 5 c0 -5 -5 -10
-11 -10 -5 0 -7 5 -4 10 3 6 8 10 11 10 2 0 4 -4 4 -10z m-70 -10 c0 -5 -5
-10 -11 -10 -5 0 -7 5 -4 10 3 6 8 10 11 10 2 0 4 -4 4 -10z m-130 -11 c0 -5
6 -7 13 -3 6 4 9 3 4 -1 -13 -15 -46 -13 -40 2 6 16 23 17 23 2z m-280 -20 c0
-6 -4 -7 -10 -4 -5 3 -10 11 -10 16 0 6 5 7 10 4 6 -3 10 -11 10 -16z m-175
-63 c0 -6 9 -22 19 -36 l18 -25 -5 24 c-6 22 -5 23 10 8 9 -9 17 -29 19 -44 3
-27 2 -27 -12 -8 -8 11 -17 19 -20 17 -9 -6 -94 71 -94 84 0 31 65 11 65 -20z
m665 30 c0 -2 -7 -6 -15 -10 -8 -3 -15 -1 -15 4 0 6 7 10 15 10 8 0 15 -2 15
-4z m-738 -33 c10 -9 18 -20 18 -25 0 -5 -7 -2 -16 6 -20 20 -38 21 -30 1 4
-10 -1 -15 -14 -15 -25 0 -25 8 -2 31 21 22 22 22 44 2z m671 1 c-7 -3 -9 -12
-6 -20 3 -8 0 -14 -6 -14 -12 0 -15 23 -4 33 3 4 11 7 17 6 7 0 6 -2 -1 -5z
m-674 -55 c-16 -10 -23 -4 -14 10 3 6 11 8 17 5 6 -4 5 -9 -3 -15z m-64 -9 c3
-5 1 -10 -4 -10 -6 0 -11 5 -11 10 0 6 2 10 4 10 3 0 8 -4 11 -10z m-285 -681
c0 -6 -4 -7 -10 -4 -5 3 -10 11 -10 16 0 6 5 7 10 4 6 -3 10 -11 10 -16z m632
-110 c23 -33 49 -59 57 -59 7 0 35 -21 60 -48 25 -26 62 -59 81 -74 19 -14 45
-35 57 -47 12 -11 29 -18 37 -15 10 4 20 -6 32 -28 9 -18 23 -40 31 -48 7 -8
23 -27 34 -42 11 -16 27 -28 35 -28 8 0 14 -4 14 -10 0 -5 5 -10 11 -10 6 0
38 -21 71 -46 59 -44 88 -51 88 -18 0 8 3 14 8 12 4 -2 24 -12 45 -21 20 -10
37 -22 37 -27 0 -6 6 -10 13 -10 6 0 46 -26 87 -58 70 -54 75 -61 78 -99 2
-24 10 -47 20 -54 14 -11 15 -11 5 1 -7 8 -13 27 -13 43 l0 28 31 -18 c94 -55
248 -204 264 -254 5 -16 13 -19 30 -15 22 6 24 2 31 -41 6 -42 3 -54 -27 -110
-59 -110 -54 -108 -226 -94 -321 26 -366 30 -376 40 -6 6 -6 25 2 55 26 104
20 122 -81 247 -50 63 -123 151 -162 197 -39 46 -85 104 -102 130 -18 26 -47
67 -65 92 -37 50 -119 206 -119 225 0 7 -7 19 -16 26 -9 7 -20 22 -25 34 -15
34 -60 108 -94 155 -18 25 -36 56 -40 70 l-7 25 25 -24 c14 -13 45 -50 69 -82z
m742 -14 c3 -8 1 -15 -4 -15 -6 0 -10 7 -10 15 0 8 2 15 4 15 2 0 6 -7 10 -15z
m1 -75 c3 -5 1 -10 -4 -10 -6 0 -11 5 -11 10 0 6 2 10 4 10 3 0 8 -4 11 -10z
m-595 -10 c0 -5 -2 -10 -4 -10 -3 0 -8 5 -11 10 -3 6 -1 10 4 10 6 0 11 -4 11
-10z"/>
<path d="M5750 8870 c0 -5 5 -10 11 -10 5 0 7 5 4 10 -3 6 -8 10 -11 10 -2 0
-4 -4 -4 -10z"/>
<path d="M5960 8444 c0 -8 5 -12 10 -9 6 3 10 10 10 16 0 5 -4 9 -10 9 -5 0
-10 -7 -10 -16z"/>
<path d="M5740 8290 c0 -5 5 -10 11 -10 5 0 7 5 4 10 -3 6 -8 10 -11 10 -2 0
-4 -4 -4 -10z"/>
<path d="M5780 8251 c0 -6 -7 -11 -15 -11 -18 0 -20 -26 -3 -36 6 -4 22 -8 36
-10 18 -2 22 0 13 9 -6 6 -11 16 -11 22 0 5 4 3 10 -5 5 -8 13 -11 17 -6 4 5
2 11 -5 13 -7 3 -19 11 -27 20 -8 8 -15 10 -15 4z"/>
<path d="M5825 8180 c-3 -5 -1 -10 4 -10 6 0 11 5 11 10 0 6 -2 10 -4 10 -3 0
-8 -4 -11 -10z"/>
<path d="M6015 7370 c-7 -11 19 -20 34 -10 9 5 7 9 -8 13 -12 3 -23 2 -26 -3z"/>
<path d="M6100 7371 c0 -6 5 -13 10 -16 6 -3 10 1 10 9 0 9 -4 16 -10 16 -5 0
-10 -4 -10 -9z"/>
<path d="M6162 7343 c1 -11 7 -19 14 -16 6 2 19 -13 28 -34 l16 -38 -6 45 c-8
55 -14 66 -25 49 -8 -12 -11 -11 -19 1 -7 12 -9 10 -8 -7z"/>
<path d="M6304 7343 c2 -13 -1 -23 -7 -23 -6 0 -7 -3 -3 -7 4 -5 11 -7 14 -6
4 1 13 -3 20 -9 17 -15 16 6 -1 24 -8 7 -17 20 -21 28 -3 9 -4 5 -2 -7z"/>
<path d="M5972 7338 c5 -15 28 -23 28 -10 0 5 -7 13 -16 16 -10 4 -14 1 -12
-6z"/>
<path d="M6106 7324 c-4 -9 -4 -19 -1 -22 2 -3 7 3 11 12 4 9 4 19 1 22 -2 3
-7 -3 -11 -12z"/>
<path d="M5853 7315 c0 -9 4 -14 9 -13 5 2 10 8 10 13 0 5 -5 11 -10 13 -5 1
-9 -4 -9 -13z"/>
<path d="M6376 7247 c3 -10 9 -15 12 -12 3 3 0 11 -7 18 -10 9 -11 8 -5 -6z"/>
<path d="M6355 7200 c3 -5 8 -10 11 -10 2 0 4 5 4 10 0 6 -5 10 -11 10 -5 0
-7 -4 -4 -10z"/>
<path d="M6250 7025 c0 -5 5 -17 10 -25 5 -8 10 -10 10 -5 0 6 -5 17 -10 25
-5 8 -10 11 -10 5z"/>
<path d="M4511 6921 c-9 -6 -5 -8 13 -8 14 0 26 3 26 8 0 11 -21 11 -39 0z"/>
<path d="M4467 6903 c-13 -12 -7 -23 13 -23 13 0 18 5 14 15 -7 16 -17 19 -27
8z"/>
<path d="M4530 6890 c0 -5 6 -10 14 -10 8 0 18 5 21 10 3 6 -3 10 -14 10 -12
0 -21 -4 -21 -10z"/>
<path d="M4478 6853 c7 -3 16 -2 19 1 4 3 -2 6 -13 5 -11 0 -14 -3 -6 -6z"/>
<path d="M6126 6795 c-3 -9 0 -15 9 -15 9 0 12 6 9 15 -4 8 -7 15 -9 15 -2 0
-5 -7 -9 -15z"/>
<path d="M6009 6773 c-1 -5 -1 -11 0 -15 0 -5 -3 -8 -9 -8 -5 0 -10 -9 -10
-20 0 -15 7 -20 26 -20 14 0 23 4 19 10 -4 6 -11 8 -16 5 -14 -9 -11 5 6 22 8
8 13 19 10 24 -7 11 -25 12 -26 2z"/>
<path d="M5930 6715 c-7 -8 -9 -15 -6 -15 4 0 14 7 22 15 9 8 11 15 6 15 -5 0
-15 -7 -22 -15z"/>
<path d="M5988 6693 c7 -3 16 -2 19 1 4 3 -2 6 -13 5 -11 0 -14 -3 -6 -6z"/>
<path d="M6025 6685 c-6 -8 -23 -16 -38 -17 -15 -1 -36 -12 -45 -23 -17 -20
-17 -20 6 -1 13 12 22 14 22 7 0 -7 5 -9 12 -5 7 4 8 3 4 -5 -4 -6 -11 -9 -16
-6 -5 3 -11 1 -14 -4 -3 -5 1 -12 10 -15 19 -7 66 38 71 67 4 21 1 21 -12 2z"/>
<path d="M4387 6534 c-13 -13 -7 -19 18 -19 14 0 24 5 22 10 -4 12 -31 18 -40
9z"/>
<path d="M5790 6436 c0 -2 7 -7 16 -10 8 -3 12 -2 9 4 -6 10 -25 14 -25 6z"/>
<path d="M5431 6397 c-13 -21 -12 -21 5 -5 10 10 16 20 13 22 -3 3 -11 -5 -18
-17z"/>
<path d="M5776 6404 c-11 -8 -16 -14 -10 -14 13 0 39 18 34 24 -3 2 -14 -2
-24 -10z"/>
<path d="M5465 6400 c-3 -5 -2 -10 4 -10 5 0 13 5 16 10 3 6 2 10 -4 10 -5 0
-13 -4 -16 -10z"/>
<path d="M5400 6349 c-16 -30 -8 -31 13 -3 10 13 13 24 8 24 -6 0 -15 -9 -21
-21z"/>
<path d="M5734 6354 c-18 -14 -18 -15 4 -4 12 6 22 13 22 15 0 8 -5 6 -26 -11z"/>
<path d="M4270 6280 c-9 -16 -8 -20 5 -20 9 0 13 5 9 11 -3 6 0 15 7 20 10 6
10 9 2 9 -7 0 -17 -9 -23 -20z"/>
<path d="M5691 6281 c-10 -6 -10 -10 -1 -16 13 -8 24 -1 19 14 -3 6 -10 7 -18
2z"/>
<path d="M5373 6255 c-15 -16 -16 -25 -5 -25 4 0 13 9 20 20 14 23 3 26 -15 5z"/>
<path d="M5637 6150 c-3 -11 -1 -20 4 -20 5 0 9 2 9 4 0 2 3 11 6 20 3 9 2 16
-4 16 -5 0 -12 -9 -15 -20z"/>
<path d="M5336 6120 c-15 -16 -17 -22 -7 -34 10 -12 8 -18 -14 -32 -19 -12
-23 -20 -15 -28 8 -8 16 -4 30 14 11 14 20 31 20 38 0 7 5 10 11 6 8 -4 8 -1
1 12 -5 11 -7 25 -5 32 6 16 2 15 -21 -8z"/>
<path d="M4134 6119 c-3 -6 -2 -15 4 -21 6 -6 11 -2 15 11 5 22 -7 29 -19 10z"/>
<path d="M4180 6113 c0 -13 -5 -23 -11 -23 -5 0 -7 -4 -4 -10 17 -27 42 10 25
38 -8 15 -9 14 -10 -5z"/>
<path d="M4300 6004 c8 -10 15 -20 16 -22 1 -2 5 1 8 7 4 5 -4 15 -16 22 -22
12 -22 11 -8 -7z"/>
<path d="M4435 5980 c3 -5 8 -10 11 -10 2 0 4 5 4 10 0 6 -5 10 -11 10 -5 0
-7 -4 -4 -10z"/>
<path d="M5528 5923 c-22 -5 -24 -23 -3 -23 8 0 14 -3 14 -7 -3 -19 2 -33 11
-33 6 0 10 16 10 35 0 19 -3 34 -7 34 -5 -1 -16 -3 -25 -6z"/>
<path d="M4755 5890 c-3 -5 -1 -10 4 -10 6 0 11 5 11 10 0 6 -2 10 -4 10 -3 0
-8 -4 -11 -10z"/>
<path d="M4511 5873 c7 -12 15 -20 18 -17 3 2 -3 12 -13 22 -17 16 -18 16 -5
-5z"/>
<path d="M4635 5880 c3 -5 8 -10 11 -10 2 0 4 5 4 10 0 6 -5 10 -11 10 -5 0
-7 -4 -4 -10z"/>
<path d="M4793 5832 c-13 -8 -12 -57 1 -70 4 -4 7 -2 6 3 -5 22 1 27 15 15 16
-13 21 0 6 16 -5 5 -11 17 -13 26 -2 11 -8 15 -15 10z"/>
<path d="M5440 5818 c0 -10 -5 -18 -12 -18 -6 0 -9 -3 -5 -6 3 -3 12 -2 21 3
10 6 12 13 6 23 -8 13 -10 12 -10 -2z"/>
<path d="M4988 5813 c6 -2 18 -2 25 0 6 3 1 5 -13 5 -14 0 -19 -2 -12 -5z"/>
<path d="M4750 5785 c-17 -20 -8 -49 15 -53 13 -2 16 0 8 5 -6 5 -10 21 -9 36
4 31 3 32 -14 12z"/>
<path d="M5440 5780 c0 -5 5 -10 10 -10 6 0 10 5 10 10 0 6 -4 10 -10 10 -5 0
-10 -4 -10 -10z"/>
<path d="M5420 5759 c7 -11 14 -19 16 -16 7 7 -7 37 -17 37 -6 0 -5 -9 1 -21z"/>
<path d="M5120 5700 c0 -5 5 -10 10 -10 6 0 10 5 10 10 0 6 -4 10 -10 10 -5 0
-10 -4 -10 -10z"/>
<path d="M5041 5674 c0 -11 3 -14 6 -6 3 7 2 16 -1 19 -3 4 -6 -2 -5 -13z"/>
<path d="M5132 5655 c0 -16 2 -22 5 -12 2 9 2 23 0 30 -3 6 -5 -1 -5 -18z"/>
<path d="M5368 5613 c-29 -4 -34 -20 -19 -58 7 -17 9 -16 15 13 4 18 11 30 16
27 4 -3 10 2 14 10 3 8 4 14 3 14 -1 -1 -14 -4 -29 -6z"/>
<path d="M5297 5590 c3 -10 11 -24 19 -31 10 -8 10 -3 -2 20 -18 35 -24 40
-17 11z"/>
<path d="M5850 6290 c-13 -8 -12 -10 3 -10 9 0 17 5 17 10 0 12 -1 12 -20 0z"/>
<path d="M5250 3905 c-7 -8 -9 -15 -4 -15 10 0 -27 -23 -64 -40 -13 -5 -20
-14 -17 -20 9 -15 35 -12 35 5 0 15 35 29 61 23 9 -2 15 7 17 30 3 34 -8 41
-28 17z"/>
<path d="M6010 3830 c0 -5 5 -10 11 -10 5 0 7 5 4 10 -3 6 -8 10 -11 10 -2 0
-4 -4 -4 -10z"/>
<path d="M5528 3533 c6 -2 18 -2 25 0 6 3 1 5 -13 5 -14 0 -19 -2 -12 -5z"/>
<path d="M5406 3435 c-19 -14 -21 -35 -3 -35 6 1 24 6 40 13 l27 12 -24 11
c-17 8 -27 8 -40 -1z"/>
<path d="M5946 3401 c-4 -7 -5 -15 -2 -18 9 -9 19 4 14 18 -4 11 -6 11 -12 0z"/>
<path d="M5365 3290 c3 -5 10 -10 16 -10 5 0 9 5 9 10 0 6 -7 10 -16 10 -8 0
-12 -4 -9 -10z"/>
<path d="M5359 2983 c-13 -16 -12 -17 4 -4 9 7 17 15 17 17 0 8 -8 3 -21 -13z"/>
<path d="M5005 2980 c-3 -5 -1 -10 4 -10 6 0 11 5 11 10 0 6 -2 10 -4 10 -3 0
-8 -4 -11 -10z"/>
<path d="M5060 2971 c-10 -11 -11 -11 -5 -2 9 14 8 14 -8 2 -16 -13 -17 -15 0
-33 13 -14 18 -16 25 -6 5 9 8 8 8 -5 0 -14 5 -17 20 -12 14 5 20 2 20 -9 0
-9 -8 -16 -20 -16 -14 0 -18 -5 -13 -16 4 -12 7 -13 14 -3 6 11 9 10 15 -4 3
-9 13 -17 21 -17 11 0 13 5 8 18 -5 9 -10 32 -13 50 -4 30 -15 41 -25 25 -2
-5 -3 -3 -1 4 1 6 -5 18 -14 26 -15 13 -19 13 -32 -2z"/>
<path d="M5030 2905 c-11 -13 -10 -14 4 -9 9 3 16 10 16 15 0 13 -6 11 -20 -6z"/>
<path d="M5320 2901 c0 -6 4 -13 10 -16 6 -3 7 1 4 9 -7 18 -14 21 -14 7z"/>
<path d="M5310 2839 c0 -5 5 -7 10 -4 6 3 10 8 10 11 0 2 -4 4 -10 4 -5 0 -10
-5 -10 -11z"/>
<path d="M5114 2749 c-4 -7 -3 -14 4 -17 6 -2 9 -9 6 -16 -3 -8 4 -16 16 -19
17 -4 19 -3 10 8 -6 7 -10 21 -8 31 4 20 -17 30 -28 13z"/>
<path d="M4720 3535 c-11 -13 -10 -14 4 -9 9 3 16 10 16 15 0 13 -6 11 -20 -6z"/>
<path d="M6195 9470 c3 -5 8 -10 11 -10 2 0 4 5 4 10 0 6 -5 10 -11 10 -5 0
-7 -4 -4 -10z"/>
<path d="M5402 9415 c3 -14 1 -28 -3 -31 -5 -3 -9 4 -9 15 0 11 -4 23 -10 26
-6 4 -8 -6 -6 -24 2 -21 -1 -31 -10 -31 -8 0 -14 7 -14 15 0 21 -17 19 -29 -4
-8 -14 -7 -22 4 -31 16 -13 10 -35 -6 -25 -5 4 -9 0 -9 -7 0 -8 11 -14 26 -14
21 0 25 4 21 23 -2 13 0 23 4 23 9 0 13 -14 10 -37 -1 -6 3 -14 9 -18 5 -3 10
2 10 12 1 17 1 17 14 0 21 -27 28 -4 10 32 -9 17 -12 36 -7 43 11 18 11 58 0
58 -5 0 -7 -11 -5 -25z m-2 -64 c0 -6 -4 -13 -10 -16 -5 -3 -10 1 -10 9 0 9 5
16 10 16 6 0 10 -4 10 -9z"/>
<path d="M5470 9410 c0 -5 -5 -9 -11 -7 -6 1 -14 -5 -16 -13 -4 -13 -3 -13 7
0 10 12 11 11 7 -8 -3 -12 -1 -20 4 -16 5 3 9 -11 9 -30 0 -20 -5 -36 -11 -36
-5 0 -7 -5 -3 -11 5 -8 9 -8 14 1 5 9 9 9 14 1 4 -6 23 -11 41 -11 26 0 33 4
29 14 -3 8 -11 13 -19 10 -7 -3 -15 4 -18 15 -3 12 -1 19 4 15 5 -3 8 6 7 20
-3 32 -16 34 -27 4 -7 -21 -8 -20 -18 9 -8 22 -8 34 0 42 8 8 8 11 -1 11 -7 0
-12 -4 -12 -10z"/>
<path d="M5697 9332 c3 -9 11 -23 17 -31 9 -12 7 -13 -13 -8 -29 7 -15 -8 15
-17 15 -4 24 -2 28 9 3 8 1 15 -4 15 -5 0 -6 7 -3 17 4 11 3 14 -5 9 -7 -4
-12 -3 -12 2 0 6 -7 12 -14 15 -11 4 -13 1 -9 -11z"/>
<path d="M5770 9270 c0 -5 5 -10 11 -10 5 0 7 5 4 10 -3 6 -8 10 -11 10 -2 0
-4 -4 -4 -10z"/>
<path d="M5785 9240 c-8 -13 9 -20 24 -11 10 6 9 10 -3 14 -8 3 -18 2 -21 -3z"/>
<path d="M5440 9200 c0 -5 14 -10 31 -10 17 0 28 4 24 10 -3 6 -17 10 -31 10
-13 0 -24 -4 -24 -10z"/>
<path d="M4617 9125 c6 -17 25 -15 31 3 2 7 -5 12 -17 12 -14 0 -19 -5 -14
-15z"/>
<path d="M4667 8775 c-4 -8 -3 -16 1 -19 4 -3 9 4 9 15 2 23 -3 25 -10 4z"/>
<path d="M4570 8749 c1 -22 21 -59 32 -59 7 0 -16 67 -25 76 -4 4 -7 -4 -7
-17z"/>
<path d="M4664 8699 c-3 -6 -1 -16 5 -22 8 -8 11 -5 11 11 0 24 -5 28 -16 11z"/>
<path d="M4650 8529 c0 -5 5 -7 10 -4 6 3 10 8 10 11 0 2 -4 4 -10 4 -5 0 -10
-5 -10 -11z"/>
<path d="M4635 8499 c-4 -6 -13 -8 -21 -5 -8 3 -14 1 -14 -4 0 -5 -14 -7 -32
-3 -29 6 -31 4 -21 -9 7 -8 9 -18 5 -23 -4 -4 4 -2 18 5 24 13 24 13 9 -11
-22 -32 -59 -38 -66 -10 -6 25 -23 28 -23 4 0 -14 -2 -14 -20 2 -11 10 -20 13
-20 7 0 -7 4 -12 9 -12 16 0 23 -40 11 -55 -16 -19 -31 -10 -23 13 3 9 3 14
-1 11 -4 -4 -11 -20 -16 -37 -7 -28 -5 -34 16 -51 14 -11 33 -17 42 -14 23 8
52 34 47 42 -2 4 4 7 14 8 21 2 84 59 96 88 13 33 16 65 6 65 -5 0 -13 -5 -16
-11z m-95 -99 c0 -5 -10 -10 -22 -10 -19 0 -20 2 -8 10 19 13 30 13 30 0z"/>
<path d="M4465 8489 c-4 -6 -4 -13 -1 -16 3 -4 6 -1 6 6 0 7 5 9 12 5 7 -4 8
-3 4 4 -9 15 -13 15 -21 1z"/>
<path d="M4430 8479 c0 -5 5 -7 10 -4 6 3 10 8 10 11 0 2 -4 4 -10 4 -5 0 -10
-5 -10 -11z"/>
<path d="M5060 8396 c0 -9 5 -16 10 -16 6 0 10 4 10 9 0 6 -4 13 -10 16 -5 3
-10 -1 -10 -9z"/>
<path d="M4661 8273 c0 -25 1 -26 9 -8 12 27 12 35 0 35 -5 0 -10 -12 -9 -27z"/>
<path d="M4497 8203 c-4 -3 -7 -11 -7 -17 0 -6 5 -5 12 2 6 6 9 14 7 17 -3 3
-9 2 -12 -2z"/>
<path d="M2950 7497 c-84 -44 -104 -72 -87 -121 9 -27 12 -28 60 -23 43 6 159
43 206 66 26 13 23 30 -7 61 -27 26 -37 30 -89 30 -32 0 -69 -6 -83 -13z"/>
<path d="M2806 7405 c-21 -13 -57 -40 -80 -60 -22 -21 -63 -51 -90 -69 -65
-41 -72 -60 -20 -53 57 8 76 17 110 51 17 17 42 39 56 48 14 9 29 30 33 45 3
15 14 36 22 46 20 21 17 21 -31 -8z"/>
<path d="M2550 7205 c-8 -9 -8 -15 -2 -15 12 0 26 19 19 26 -2 2 -10 -2 -17
-11z"/>
<path d="M850 6178 c0 -8 7 -21 15 -28 19 -16 19 -1 0 24 -12 16 -15 17 -15 4z"/>
<path d="M931 6094 c0 -11 3 -14 6 -6 3 7 2 16 -1 19 -3 4 -6 -2 -5 -13z"/>
<path d="M1513 5936 c-22 -10 -32 -36 -15 -36 8 0 46 41 40 44 -2 1 -13 -3
-25 -8z"/>
<path d="M1976 498 c3 -4 9 -8 15 -8 5 0 9 4 9 8 0 5 -7 9 -15 9 -8 0 -12 -4
-9 -9z"/>
<path d="M10080 80 l0 -80 80 0 80 0 0 80 0 80 -80 0 -80 0 0 -80z"/>
</g>
</svg>
